<svg xmlns="http://www.w3.org/2000/svg" width="1735" height="800">
  <rect width="100%" height="100%" fill="#3E5EB2" />
  <g>
    <rect x="25" y="20" width="400" height="400" fill="#3E5EB2" stroke="white" stroke-width="2" />
    <text x="38" y="228" fill="white" font-family="Helvetica" font-size="1.2em" text-anchor="start">NHS NUMBER</text>
  </g>
  <g>
    <line x1="225" y1="420" x2="225" y2="615" stroke="white" stroke-width="2" />
    <line x1="215" y1="605" x2="225" y2="615" stroke="white" stroke-width="2" />
    <line x1="235" y1="605" x2="225" y2="615" stroke="white" stroke-width="2" />
    <text x="100" y="728" fill="white" font-size="1em" font-family="Helvetica">Copy value</text>
  </g>
  <g>
    <rect x="25" y="620" width="400" height="80" fill="white" stroke="white" stroke-width="2" rx="10" />
    <text x="38" y="668" fill="#3E5EB2" font-family="Helvetica" font-size="1.2em" text-anchor="start">nhs_number</text>
  </g>
  <g>
    <rect x="445" y="20" width="400" height="40" fill="#3E5EB2" stroke="white" stroke-width="2" />
    <text x="458" y="48" fill="white" font-family="Helvetica" font-size="1.2em" text-anchor="start">DATE FIRST SEEN</text>
  </g>
  <g>
    <rect x="445" y="80" width="400" height="40" fill="#3E5EB2" stroke="white" stroke-width="2" />
    <text x="458" y="108" fill="white" font-family="Helvetica" font-size="1.2em" text-anchor="start">DATE FIRST SEEN</text>
    <text x="458" y="126" fill="white" font-family="Helvetica" font-size="1.2em" text-anchor="start">(CANCER SPECIALIST)</text>
  </g>
  <g>
    <rect x="445" y="140" width="400" height="40" fill="#3E5EB2" stroke="white" stroke-width="2" />
    <text x="458" y="168" fill="white" font-family="Helvetica" font-size="1.2em" text-anchor="start">DATE OF PRIMARY</text>
    <text x="458" y="186" fill="white" font-family="Helvetica" font-size="1.2em" text-anchor="start">CANCER DIAGNOSIS (CLINICALLY</text>
    <text x="458" y="204" fill="white" font-family="Helvetica" font-size="1.2em" text-anchor="start">AGREED)</text>
  </g>
  <g>
    <rect x="445" y="200" width="400" height="40" fill="#3E5EB2" stroke="white" stroke-width="2" />
    <text x="458" y="228" fill="white" font-family="Helvetica" font-size="1.2em" text-anchor="start">TNM STAGE GROUPING</text>
    <text x="458" y="246" fill="white" font-family="Helvetica" font-size="1.2em" text-anchor="start">DATE (FINAL PRETREATMENT)</text>
  </g>
  <g>
    <rect x="445" y="260" width="400" height="40" fill="#3E5EB2" stroke="white" stroke-width="2" />
    <text x="458" y="288" fill="white" font-family="Helvetica" font-size="1.2em" text-anchor="start">TNM STAGE GROUPING</text>
    <text x="458" y="306" fill="white" font-family="Helvetica" font-size="1.2em" text-anchor="start">DATE (INTEGRATED)</text>
  </g>
  <g>
    <rect x="445" y="320" width="400" height="40" fill="#3E5EB2" stroke="white" stroke-width="2" />
    <text x="458" y="348" fill="white" font-family="Helvetica" font-size="1.2em" text-anchor="start">TREATMENT START DATE</text>
    <text x="458" y="366" fill="white" font-family="Helvetica" font-size="1.2em" text-anchor="start">(CANCER)</text>
  </g>
  <g>
    <rect x="445" y="380" width="400" height="40" fill="#3E5EB2" stroke="white" stroke-width="2" />
    <text x="458" y="408" fill="white" font-family="Helvetica" font-size="1.2em" text-anchor="start">PROCEDURE DATE</text>
  </g>
  <g>
    <line x1="645" y1="420" x2="645" y2="615" stroke="white" stroke-width="2" />
    <line x1="635" y1="605" x2="645" y2="615" stroke="white" stroke-width="2" />
    <line x1="655" y1="605" x2="645" y2="615" stroke="white" stroke-width="2" />
    <text x="520" y="728" fill="white" font-size="1em" font-family="Helvetica">Copy value</text>
  </g>
  <g>
    <rect x="445" y="620" width="400" height="80" fill="white" stroke="white" stroke-width="2" rx="10" />
    <text x="458" y="668" fill="#3E5EB2" font-family="Helvetica" font-size="1.2em" text-anchor="start">observation_date</text>
  </g>
  <g>
    <rect x="865" y="20" width="400" height="40" fill="#3E5EB2" stroke="white" stroke-width="2" />
    <text x="878" y="48" fill="white" font-family="Helvetica" font-size="1.2em" text-anchor="start">DATE FIRST SEEN</text>
  </g>
  <g>
    <rect x="865" y="80" width="400" height="40" fill="#3E5EB2" stroke="white" stroke-width="2" />
    <text x="878" y="108" fill="white" font-family="Helvetica" font-size="1.2em" text-anchor="start">DATE FIRST SEEN</text>
    <text x="878" y="126" fill="white" font-family="Helvetica" font-size="1.2em" text-anchor="start">(CANCER SPECIALIST)</text>
  </g>
  <g>
    <rect x="865" y="140" width="400" height="40" fill="#3E5EB2" stroke="white" stroke-width="2" />
    <text x="878" y="168" fill="white" font-family="Helvetica" font-size="1.2em" text-anchor="start">DATE OF PRIMARY</text>
    <text x="878" y="186" fill="white" font-family="Helvetica" font-size="1.2em" text-anchor="start">CANCER DIAGNOSIS (CLINICALLY</text>
    <text x="878" y="204" fill="white" font-family="Helvetica" font-size="1.2em" text-anchor="start">AGREED)</text>
  </g>
  <g>
    <rect x="865" y="200" width="400" height="40" fill="#3E5EB2" stroke="white" stroke-width="2" />
    <text x="878" y="228" fill="white" font-family="Helvetica" font-size="1.2em" text-anchor="start">TNM STAGE GROUPING</text>
    <text x="878" y="246" fill="white" font-family="Helvetica" font-size="1.2em" text-anchor="start">DATE (FINAL PRETREATMENT)</text>
  </g>
  <g>
    <rect x="865" y="260" width="400" height="40" fill="#3E5EB2" stroke="white" stroke-width="2" />
    <text x="878" y="288" fill="white" font-family="Helvetica" font-size="1.2em" text-anchor="start">TNM STAGE GROUPING</text>
    <text x="878" y="306" fill="white" font-family="Helvetica" font-size="1.2em" text-anchor="start">DATE (INTEGRATED)</text>
  </g>
  <g>
    <rect x="865" y="320" width="400" height="40" fill="#3E5EB2" stroke="white" stroke-width="2" />
    <text x="878" y="348" fill="white" font-family="Helvetica" font-size="1.2em" text-anchor="start">TREATMENT START DATE</text>
    <text x="878" y="366" fill="white" font-family="Helvetica" font-size="1.2em" text-anchor="start">(CANCER)</text>
  </g>
  <g>
    <rect x="865" y="380" width="400" height="40" fill="#3E5EB2" stroke="white" stroke-width="2" />
    <text x="878" y="408" fill="white" font-family="Helvetica" font-size="1.2em" text-anchor="start">PROCEDURE DATE</text>
  </g>
  <g>
    <line x1="1065" y1="420" x2="1065" y2="615" stroke="white" stroke-width="2" />
    <line x1="1055" y1="605" x2="1065" y2="615" stroke="white" stroke-width="2" />
    <line x1="1075" y1="605" x2="1065" y2="615" stroke="white" stroke-width="2" />
    <text x="940" y="728" fill="white" font-size="1em" font-family="Helvetica">Copy value</text>
  </g>
  <g>
    <rect x="865" y="620" width="400" height="80" fill="white" stroke="white" stroke-width="2" rx="10" />
    <text x="878" y="668" fill="#3E5EB2" font-family="Helvetica" font-size="1.2em" text-anchor="start">observation_datetime</text>
  </g>
  <g>
    <rect x="1285" y="20" width="400" height="400" fill="#3E5EB2" stroke="white" stroke-width="2" />
    <text x="1298" y="228" fill="white" font-family="Helvetica" font-size="1.2em" text-anchor="start">SOURCE OF REFERRAL</text>
    <text x="1298" y="246" fill="white" font-family="Helvetica" font-size="1.2em" text-anchor="start">FOR OUT-PATIENTS</text>
  </g>
  <g>
    <line x1="1485" y1="420" x2="1485" y2="615" stroke="white" stroke-width="2" />
    <line x1="1475" y1="605" x2="1485" y2="615" stroke="white" stroke-width="2" />
    <line x1="1495" y1="605" x2="1485" y2="615" stroke="white" stroke-width="2" />
    <text x="1360" y="728" fill="white" font-size="1em" font-family="Helvetica">Copy value</text>
  </g>
  <g>
    <rect x="1285" y="620" width="400" height="80" fill="white" stroke="white" stroke-width="2" rx="10" />
    <text x="1298" y="668" fill="#3E5EB2" font-family="Helvetica" font-size="1.2em" text-anchor="start">value_as_string</text>
  </g>
</svg>