<svg xmlns="http://www.w3.org/2000/svg" width="5515" height="800">
  <rect width="100%" height="100%" fill="#3E5EB2" />
  <g>
    <rect x="25" y="20" width="400" height="400" fill="#3E5EB2" stroke="white" stroke-width="2" />
    <text x="38" y="228" fill="white" font-family="Helvetica" font-size="1.2em" text-anchor="start">NHS NUMBER</text>
  </g>
  <g>
    <line x1="225" y1="420" x2="225" y2="615" stroke="white" stroke-width="2" />
    <line x1="215" y1="605" x2="225" y2="615" stroke="white" stroke-width="2" />
    <line x1="235" y1="605" x2="225" y2="615" stroke="white" stroke-width="2" />
    <text x="100" y="728" fill="white" font-size="1em" font-family="Helvetica">Copy value</text>
  </g>
  <g>
    <rect x="25" y="620" width="400" height="80" fill="white" stroke="white" stroke-width="2" rx="10" />
    <text x="38" y="668" fill="#3E5EB2" font-family="Helvetica" font-size="1.2em" text-anchor="start">nhs_number</text>
  </g>
  <g>
    <rect x="445" y="20" width="400" height="400" fill="#3E5EB2" stroke="white" stroke-width="2" />
    <text x="458" y="228" fill="white" font-family="Helvetica" font-size="1.2em" text-anchor="start">beg_dt_tm</text>
  </g>
  <g>
    <line x1="645" y1="420" x2="645" y2="615" stroke="white" stroke-width="2" />
    <line x1="635" y1="605" x2="645" y2="615" stroke="white" stroke-width="2" />
    <line x1="655" y1="605" x2="645" y2="615" stroke="white" stroke-width="2" />
    <text x="520" y="728" fill="white" font-size="1em" font-family="Helvetica">Converts text to dates.</text>
  </g>
  <g>
    <rect x="445" y="620" width="400" height="80" fill="white" stroke="white" stroke-width="2" rx="10" />
    <text x="458" y="668" fill="#3E5EB2" font-family="Helvetica" font-size="1.2em" text-anchor="start">drug_exposure_start_date</text>
  </g>
  <g>
    <rect x="865" y="20" width="400" height="400" fill="#3E5EB2" stroke="white" stroke-width="2" />
    <text x="878" y="228" fill="white" font-family="Helvetica" font-size="1.2em" text-anchor="start">end_dt_tm</text>
  </g>
  <g>
    <line x1="1065" y1="420" x2="1065" y2="615" stroke="white" stroke-width="2" />
    <line x1="1055" y1="605" x2="1065" y2="615" stroke="white" stroke-width="2" />
    <line x1="1075" y1="605" x2="1065" y2="615" stroke="white" stroke-width="2" />
    <text x="940" y="728" fill="white" font-size="1em" font-family="Helvetica">Converts text to dates.</text>
  </g>
  <g>
    <rect x="865" y="620" width="400" height="80" fill="white" stroke="white" stroke-width="2" rx="10" />
    <text x="878" y="668" fill="#3E5EB2" font-family="Helvetica" font-size="1.2em" text-anchor="start">drug_exposure_end_date</text>
  </g>
  <g>
    <rect x="1285" y="20" width="400" height="400" fill="#3E5EB2" stroke="white" stroke-width="2" />
    <text x="1298" y="228" fill="white" font-family="Helvetica" font-size="1.2em" text-anchor="start">concept_identifier</text>
  </g>
  <g>
    <line x1="1485" y1="420" x2="1485" y2="615" stroke="white" stroke-width="2" />
    <line x1="1475" y1="605" x2="1485" y2="615" stroke="white" stroke-width="2" />
    <line x1="1495" y1="605" x2="1485" y2="615" stroke="white" stroke-width="2" />
    <text x="1360" y="728" fill="white" font-size="1em" font-family="Helvetica">Resolve Snomed codes to OMOP</text>
    <text x="1360" y="746" fill="white" font-size="1em" font-family="Helvetica">concepts.</text>
  </g>
  <g>
    <rect x="1285" y="620" width="400" height="80" fill="white" stroke="white" stroke-width="2" rx="10" />
    <text x="1298" y="668" fill="#3E5EB2" font-family="Helvetica" font-size="1.2em" text-anchor="start">drug_source_concept_id</text>
  </g>
  <g>
    <rect x="1705" y="20" width="400" height="400" fill="#3E5EB2" stroke="white" stroke-width="2" />
    <text x="1718" y="228" fill="white" font-family="Helvetica" font-size="1.2em" text-anchor="start">strengthdose</text>
  </g>
  <g>
    <line x1="1905" y1="420" x2="1905" y2="615" stroke="white" stroke-width="2" />
    <line x1="1895" y1="605" x2="1905" y2="615" stroke="white" stroke-width="2" />
    <line x1="1915" y1="605" x2="1905" y2="615" stroke="white" stroke-width="2" />
    <text x="1780" y="728" fill="white" font-size="1em" font-family="Helvetica">Converts text to floating-point numbers.</text>
  </g>
  <g>
    <rect x="1705" y="620" width="400" height="80" fill="white" stroke="white" stroke-width="2" rx="10" />
    <text x="1718" y="668" fill="#3E5EB2" font-family="Helvetica" font-size="1.2em" text-anchor="start">quantity</text>
  </g>
  <g>
    <rect x="2125" y="20" width="400" height="400" fill="#3E5EB2" stroke="white" stroke-width="2" />
    <text x="2138" y="228" fill="white" font-family="Helvetica" font-size="1.2em" text-anchor="start">order_mnemonic</text>
  </g>
  <g>
    <line x1="2325" y1="420" x2="2325" y2="615" stroke="white" stroke-width="2" />
    <line x1="2315" y1="605" x2="2325" y2="615" stroke="white" stroke-width="2" />
    <line x1="2335" y1="605" x2="2325" y2="615" stroke="white" stroke-width="2" />
    <text x="2200" y="728" fill="white" font-size="1em" font-family="Helvetica">Copy value</text>
  </g>
  <g>
    <rect x="2125" y="620" width="400" height="80" fill="white" stroke="white" stroke-width="2" rx="10" />
    <text x="2138" y="668" fill="#3E5EB2" font-family="Helvetica" font-size="1.2em" text-anchor="start">drug_source_value</text>
  </g>
  <g>
    <rect x="2545" y="20" width="400" height="400" fill="#3E5EB2" stroke="white" stroke-width="2" />
    <text x="2558" y="228" fill="white" font-family="Helvetica" font-size="1.2em" text-anchor="start">strengthdoseunit</text>
  </g>
  <g>
    <line x1="2745" y1="420" x2="2745" y2="615" stroke="white" stroke-width="2" />
    <line x1="2735" y1="605" x2="2745" y2="615" stroke="white" stroke-width="2" />
    <line x1="2755" y1="605" x2="2745" y2="615" stroke="white" stroke-width="2" />
    <text x="2620" y="728" fill="white" font-size="1em" font-family="Helvetica">Copy value</text>
  </g>
  <g>
    <rect x="2545" y="620" width="400" height="80" fill="white" stroke="white" stroke-width="2" rx="10" />
    <text x="2558" y="668" fill="#3E5EB2" font-family="Helvetica" font-size="1.2em" text-anchor="start">dose_unit_source_value</text>
  </g>
  <g>
    <rect x="2965" y="20" width="400" height="400" fill="#3E5EB2" stroke="white" stroke-width="2" />
    <text x="2978" y="228" fill="white" font-family="Helvetica" font-size="1.2em" text-anchor="start">order_detail_display_line</text>
  </g>
  <g>
    <line x1="3165" y1="420" x2="3165" y2="615" stroke="white" stroke-width="2" />
    <line x1="3155" y1="605" x2="3165" y2="615" stroke="white" stroke-width="2" />
    <line x1="3175" y1="605" x2="3165" y2="615" stroke="white" stroke-width="2" />
    <text x="3040" y="728" fill="white" font-size="1em" font-family="Helvetica">Copy value</text>
  </g>
  <g>
    <rect x="2965" y="620" width="400" height="80" fill="white" stroke="white" stroke-width="2" rx="10" />
    <text x="2978" y="668" fill="#3E5EB2" font-family="Helvetica" font-size="1.2em" text-anchor="start">sig</text>
  </g>
  <g>
    <rect x="3385" y="20" width="400" height="400" fill="#3E5EB2" stroke="white" stroke-width="2" />
    <text x="3398" y="228" fill="white" font-family="Helvetica" font-size="1.2em" text-anchor="start">beg_dt_tm</text>
  </g>
  <g>
    <line x1="3585" y1="420" x2="3585" y2="615" stroke="white" stroke-width="2" />
    <line x1="3575" y1="605" x2="3585" y2="615" stroke="white" stroke-width="2" />
    <line x1="3595" y1="605" x2="3585" y2="615" stroke="white" stroke-width="2" />
    <text x="3460" y="728" fill="white" font-size="1em" font-family="Helvetica">Converts text to dates.</text>
  </g>
  <g>
    <rect x="3385" y="620" width="400" height="80" fill="white" stroke="white" stroke-width="2" rx="10" />
    <text x="3398" y="668" fill="#3E5EB2" font-family="Helvetica" font-size="1.2em" text-anchor="start">drug_exposure_start_datetime</text>
  </g>
  <g>
    <rect x="3805" y="20" width="400" height="400" fill="#3E5EB2" stroke="white" stroke-width="2" />
    <text x="3818" y="228" fill="white" font-family="Helvetica" font-size="1.2em" text-anchor="start">end_dt_tm</text>
  </g>
  <g>
    <line x1="4005" y1="420" x2="4005" y2="615" stroke="white" stroke-width="2" />
    <line x1="3995" y1="605" x2="4005" y2="615" stroke="white" stroke-width="2" />
    <line x1="4015" y1="605" x2="4005" y2="615" stroke="white" stroke-width="2" />
    <text x="3880" y="728" fill="white" font-size="1em" font-family="Helvetica">Converts text to dates.</text>
  </g>
  <g>
    <rect x="3805" y="620" width="400" height="80" fill="white" stroke="white" stroke-width="2" rx="10" />
    <text x="3818" y="668" fill="#3E5EB2" font-family="Helvetica" font-size="1.2em" text-anchor="start">drug_exposure_end_datetime</text>
  </g>
  <g>
    <rect x="4225" y="20" width="400" height="400" fill="#3E5EB2" stroke="white" stroke-width="2" />
    <text x="4238" y="228" fill="white" font-family="Helvetica" font-size="1.2em" text-anchor="start">rxroute</text>
  </g>
  <g>
    <line x1="4425" y1="420" x2="4425" y2="615" stroke="white" stroke-width="2" />
    <line x1="4415" y1="605" x2="4425" y2="615" stroke="white" stroke-width="2" />
    <line x1="4435" y1="605" x2="4425" y2="615" stroke="white" stroke-width="2" />
    <text x="4300" y="728" fill="white" font-size="1em" font-family="Helvetica">Prescribing Drug Routes to OMOP</text>
    <text x="4300" y="746" fill="white" font-size="1em" font-family="Helvetica">Condition Concept IDs</text>
  </g>
  <g>
    <rect x="4225" y="620" width="400" height="80" fill="white" stroke="white" stroke-width="2" rx="10" />
    <text x="4238" y="668" fill="#3E5EB2" font-family="Helvetica" font-size="1.2em" text-anchor="start">route_concept_id</text>
  </g>
  <g>
    <rect x="4645" y="20" width="400" height="400" fill="#3E5EB2" stroke="white" stroke-width="2" />
    <text x="4658" y="228" fill="white" font-family="Helvetica" font-size="1.2em" text-anchor="start">rxroute</text>
  </g>
  <g>
    <line x1="4845" y1="420" x2="4845" y2="615" stroke="white" stroke-width="2" />
    <line x1="4835" y1="605" x2="4845" y2="615" stroke="white" stroke-width="2" />
    <line x1="4855" y1="605" x2="4845" y2="615" stroke="white" stroke-width="2" />
    <text x="4720" y="728" fill="white" font-size="1em" font-family="Helvetica">Copy value</text>
  </g>
  <g>
    <rect x="4645" y="620" width="400" height="80" fill="white" stroke="white" stroke-width="2" rx="10" />
    <text x="4658" y="668" fill="#3E5EB2" font-family="Helvetica" font-size="1.2em" text-anchor="start">route_source_value</text>
  </g>
  <g>
    <rect x="5065" y="20" width="400" height="400" fill="#3E5EB2" stroke="white" stroke-width="2" />
    <text x="5078" y="228" fill="white" font-family="Helvetica" font-size="1.2em" text-anchor="start">EVENT_ID</text>
  </g>
  <g>
    <line x1="5265" y1="420" x2="5265" y2="615" stroke="white" stroke-width="2" />
    <line x1="5255" y1="605" x2="5265" y2="615" stroke="white" stroke-width="2" />
    <line x1="5275" y1="605" x2="5265" y2="615" stroke="white" stroke-width="2" />
    <text x="5140" y="728" fill="white" font-size="1em" font-family="Helvetica">Copy value</text>
  </g>
  <g>
    <rect x="5065" y="620" width="400" height="80" fill="white" stroke="white" stroke-width="2" rx="10" />
    <text x="5078" y="668" fill="#3E5EB2" font-family="Helvetica" font-size="1.2em" text-anchor="start">RecordConnectionIdentifier</text>
  </g>
</svg>