<svg xmlns="http://www.w3.org/2000/svg" width="2575" height="800">
  <rect width="100%" height="100%" fill="#3E5EB2" />
  <g>
    <rect x="25" y="20" width="400" height="400" fill="#3E5EB2" stroke="white" stroke-width="2" />
    <text x="38" y="228" fill="white" font-family="Helvetica" font-size="1.2em" text-anchor="start">NHS NUMBER</text>
  </g>
  <g>
    <line x1="225" y1="420" x2="225" y2="615" stroke="white" stroke-width="2" />
    <line x1="215" y1="605" x2="225" y2="615" stroke="white" stroke-width="2" />
    <line x1="235" y1="605" x2="225" y2="615" stroke="white" stroke-width="2" />
    <text x="100" y="728" fill="white" font-size="1em" font-family="Helvetica">Copy value</text>
  </g>
  <g>
    <rect x="25" y="620" width="400" height="80" fill="white" stroke="white" stroke-width="2" rx="10" />
    <text x="38" y="668" fill="#3E5EB2" font-family="Helvetica" font-size="1.2em" text-anchor="start">person_source_value</text>
  </g>
  <g>
    <rect x="445" y="20" width="400" height="400" fill="#3E5EB2" stroke="white" stroke-width="2" />
    <text x="458" y="228" fill="white" font-family="Helvetica" font-size="1.2em" text-anchor="start">PERSON GENDER CODE</text>
    <text x="458" y="246" fill="white" font-family="Helvetica" font-size="1.2em" text-anchor="start">CURRENT</text>
  </g>
  <g>
    <line x1="645" y1="420" x2="645" y2="615" stroke="white" stroke-width="2" />
    <line x1="635" y1="605" x2="645" y2="615" stroke="white" stroke-width="2" />
    <line x1="655" y1="605" x2="645" y2="615" stroke="white" stroke-width="2" />
    <text x="520" y="728" fill="white" font-size="1em" font-family="Helvetica">Lookup gender concept.</text>
  </g>
  <g>
    <rect x="445" y="620" width="400" height="80" fill="white" stroke="white" stroke-width="2" rx="10" />
    <text x="458" y="668" fill="#3E5EB2" font-family="Helvetica" font-size="1.2em" text-anchor="start">gender_concept_id</text>
  </g>
  <g>
    <rect x="865" y="20" width="400" height="400" fill="#3E5EB2" stroke="white" stroke-width="2" />
    <text x="878" y="228" fill="white" font-family="Helvetica" font-size="1.2em" text-anchor="start">PERSON BIRTH DATE</text>
  </g>
  <g>
    <line x1="1065" y1="420" x2="1065" y2="615" stroke="white" stroke-width="2" />
    <line x1="1055" y1="605" x2="1065" y2="615" stroke="white" stroke-width="2" />
    <line x1="1075" y1="605" x2="1065" y2="615" stroke="white" stroke-width="2" />
    <text x="940" y="728" fill="white" font-size="1em" font-family="Helvetica">Selects the year from a</text>
    <text x="940" y="746" fill="white" font-size="1em" font-family="Helvetica">date or null of the</text>
    <text x="940" y="764" fill="white" font-size="1em" font-family="Helvetica">date is null.</text>
  </g>
  <g>
    <rect x="865" y="620" width="400" height="80" fill="white" stroke="white" stroke-width="2" rx="10" />
    <text x="878" y="668" fill="#3E5EB2" font-family="Helvetica" font-size="1.2em" text-anchor="start">year_of_birth</text>
  </g>
  <g>
    <rect x="1285" y="20" width="400" height="400" fill="#3E5EB2" stroke="white" stroke-width="2" />
    <text x="1298" y="228" fill="white" font-family="Helvetica" font-size="1.2em" text-anchor="start">PERSON BIRTH DATE</text>
  </g>
  <g>
    <line x1="1485" y1="420" x2="1485" y2="615" stroke="white" stroke-width="2" />
    <line x1="1475" y1="605" x2="1485" y2="615" stroke="white" stroke-width="2" />
    <line x1="1495" y1="605" x2="1485" y2="615" stroke="white" stroke-width="2" />
    <text x="1360" y="728" fill="white" font-size="1em" font-family="Helvetica">Selects the month of the</text>
    <text x="1360" y="746" fill="white" font-size="1em" font-family="Helvetica">year or null if the</text>
    <text x="1360" y="764" fill="white" font-size="1em" font-family="Helvetica">date is null.</text>
  </g>
  <g>
    <rect x="1285" y="620" width="400" height="80" fill="white" stroke="white" stroke-width="2" rx="10" />
    <text x="1298" y="668" fill="#3E5EB2" font-family="Helvetica" font-size="1.2em" text-anchor="start">month_of_birth</text>
  </g>
  <g>
    <rect x="1705" y="20" width="400" height="400" fill="#3E5EB2" stroke="white" stroke-width="2" />
    <text x="1718" y="228" fill="white" font-family="Helvetica" font-size="1.2em" text-anchor="start">PERSON BIRTH DATE</text>
  </g>
  <g>
    <line x1="1905" y1="420" x2="1905" y2="615" stroke="white" stroke-width="2" />
    <line x1="1895" y1="605" x2="1905" y2="615" stroke="white" stroke-width="2" />
    <line x1="1915" y1="605" x2="1905" y2="615" stroke="white" stroke-width="2" />
    <text x="1780" y="728" fill="white" font-size="1em" font-family="Helvetica">Selects the day of the</text>
    <text x="1780" y="746" fill="white" font-size="1em" font-family="Helvetica">month or null if the</text>
    <text x="1780" y="764" fill="white" font-size="1em" font-family="Helvetica">date is null.</text>
  </g>
  <g>
    <rect x="1705" y="620" width="400" height="80" fill="white" stroke="white" stroke-width="2" rx="10" />
    <text x="1718" y="668" fill="#3E5EB2" font-family="Helvetica" font-size="1.2em" text-anchor="start">day_of_birth</text>
  </g>
  <g>
    <rect x="2125" y="20" width="400" height="400" fill="#3E5EB2" stroke="white" stroke-width="2" />
    <text x="2138" y="228" fill="white" font-family="Helvetica" font-size="1.2em" text-anchor="start">PERSON BIRTH DATE</text>
  </g>
  <g>
    <line x1="2325" y1="420" x2="2325" y2="615" stroke="white" stroke-width="2" />
    <line x1="2315" y1="605" x2="2325" y2="615" stroke="white" stroke-width="2" />
    <line x1="2335" y1="605" x2="2325" y2="615" stroke="white" stroke-width="2" />
    <text x="2200" y="728" fill="white" font-size="1em" font-family="Helvetica">Converts text to dates.</text>
  </g>
  <g>
    <rect x="2125" y="620" width="400" height="80" fill="white" stroke="white" stroke-width="2" rx="10" />
    <text x="2138" y="668" fill="#3E5EB2" font-family="Helvetica" font-size="1.2em" text-anchor="start">birth_datetime</text>
  </g>
</svg>