<svg xmlns="http://www.w3.org/2000/svg" width="2155" height="800">
  <rect width="100%" height="100%" fill="#3E5EB2" />
  <g>
    <rect x="25" y="20" width="400" height="400" fill="#3E5EB2" stroke="white" stroke-width="2" />
    <text x="38" y="228" fill="white" font-family="Helvetica" font-size="1.2em" text-anchor="start">NHS NUMBER</text>
  </g>
  <g>
    <line x1="225" y1="420" x2="225" y2="615" stroke="white" stroke-width="2" />
    <line x1="215" y1="605" x2="225" y2="615" stroke="white" stroke-width="2" />
    <line x1="235" y1="605" x2="225" y2="615" stroke="white" stroke-width="2" />
    <text x="100" y="728" fill="white" font-size="1em" font-family="Helvetica">Copy value</text>
  </g>
  <g>
    <rect x="25" y="620" width="400" height="80" fill="white" stroke="white" stroke-width="2" rx="10" />
    <text x="38" y="668" fill="#3E5EB2" font-family="Helvetica" font-size="1.2em" text-anchor="start">NhsNumber</text>
  </g>
  <g>
    <rect x="445" y="20" width="400" height="400" fill="#3E5EB2" stroke="white" stroke-width="2" />
    <text x="458" y="228" fill="white" font-family="Helvetica" font-size="1.2em" text-anchor="start">DISCHARGE DATE (HOSPITAL</text>
    <text x="458" y="246" fill="white" font-family="Helvetica" font-size="1.2em" text-anchor="start">PROVIDER SPELL)</text>
  </g>
  <g>
    <line x1="645" y1="420" x2="645" y2="615" stroke="white" stroke-width="2" />
    <line x1="635" y1="605" x2="645" y2="615" stroke="white" stroke-width="2" />
    <line x1="655" y1="605" x2="645" y2="615" stroke="white" stroke-width="2" />
    <text x="520" y="728" fill="white" font-size="1em" font-family="Helvetica">Converts text to dates.</text>
  </g>
  <g>
    <rect x="445" y="620" width="400" height="80" fill="white" stroke="white" stroke-width="2" rx="10" />
    <text x="458" y="668" fill="#3E5EB2" font-family="Helvetica" font-size="1.2em" text-anchor="start">death_date</text>
  </g>
  <g>
    <rect x="865" y="20" width="400" height="190" fill="#3E5EB2" stroke="white" stroke-width="2" />
    <text x="878" y="123" fill="white" font-family="Helvetica" font-size="1.2em" text-anchor="start">DISCHARGE DATE (HOSPITAL</text>
    <text x="878" y="141" fill="white" font-family="Helvetica" font-size="1.2em" text-anchor="start">PROVIDER SPELL)</text>
  </g>
  <g>
    <rect x="865" y="230" width="400" height="190" fill="#3E5EB2" stroke="white" stroke-width="2" />
    <text x="878" y="333" fill="white" font-family="Helvetica" font-size="1.2em" text-anchor="start">DISCHARGE TIME (HOSPITAL</text>
    <text x="878" y="351" fill="white" font-family="Helvetica" font-size="1.2em" text-anchor="start">PROVIDER SPELL)</text>
  </g>
  <g>
    <line x1="1065" y1="420" x2="1065" y2="615" stroke="white" stroke-width="2" />
    <line x1="1055" y1="605" x2="1065" y2="615" stroke="white" stroke-width="2" />
    <line x1="1075" y1="605" x2="1065" y2="615" stroke="white" stroke-width="2" />
    <text x="940" y="728" fill="white" font-size="1em" font-family="Helvetica">Combines a date with a</text>
    <text x="940" y="746" fill="white" font-size="1em" font-family="Helvetica">time of day.</text>
  </g>
  <g>
    <rect x="865" y="620" width="400" height="80" fill="white" stroke="white" stroke-width="2" rx="10" />
    <text x="878" y="668" fill="#3E5EB2" font-family="Helvetica" font-size="1.2em" text-anchor="start">death_datetime</text>
  </g>
  <g>
    <rect x="1285" y="20" width="400" height="400" fill="#3E5EB2" stroke="white" stroke-width="2" />
    <text x="1298" y="228" fill="white" font-family="Helvetica" font-size="1.2em" text-anchor="start">PRIMARY DIAGNOSIS</text>
  </g>
  <g>
    <line x1="1485" y1="420" x2="1485" y2="615" stroke="white" stroke-width="2" />
    <line x1="1475" y1="605" x2="1485" y2="615" stroke="white" stroke-width="2" />
    <line x1="1495" y1="605" x2="1485" y2="615" stroke="white" stroke-width="2" />
    <text x="1360" y="728" fill="white" font-size="1em" font-family="Helvetica">Resolve ICD10 codes to OMOP</text>
    <text x="1360" y="746" fill="white" font-size="1em" font-family="Helvetica">concepts. If code cannot be</text>
    <text x="1360" y="764" fill="white" font-size="1em" font-family="Helvetica">mapped, map using the parent</text>
    <text x="1360" y="782" fill="white" font-size="1em" font-family="Helvetica">code.</text>
  </g>
  <g>
    <rect x="1285" y="620" width="400" height="80" fill="white" stroke="white" stroke-width="2" rx="10" />
    <text x="1298" y="668" fill="#3E5EB2" font-family="Helvetica" font-size="1.2em" text-anchor="start">cause_concept_id</text>
  </g>
  <g>
    <rect x="1705" y="20" width="400" height="400" fill="#3E5EB2" stroke="white" stroke-width="2" />
    <text x="1718" y="228" fill="white" font-family="Helvetica" font-size="1.2em" text-anchor="start">PRIMARY DIAGNOSIS</text>
  </g>
  <g>
    <line x1="1905" y1="420" x2="1905" y2="615" stroke="white" stroke-width="2" />
    <line x1="1895" y1="605" x2="1905" y2="615" stroke="white" stroke-width="2" />
    <line x1="1915" y1="605" x2="1905" y2="615" stroke="white" stroke-width="2" />
    <text x="1780" y="728" fill="white" font-size="1em" font-family="Helvetica">Copy value</text>
  </g>
  <g>
    <rect x="1705" y="620" width="400" height="80" fill="white" stroke="white" stroke-width="2" rx="10" />
    <text x="1718" y="668" fill="#3E5EB2" font-family="Helvetica" font-size="1.2em" text-anchor="start">cause_source_value</text>
  </g>
</svg>