<svg xmlns="http://www.w3.org/2000/svg" width="3415" height="800">
  <rect width="100%" height="100%" fill="#3E5EB2" />
  <g>
    <rect x="25" y="20" width="400" height="400" fill="#3E5EB2" stroke="white" stroke-width="2" />
    <text x="38" y="228" fill="white" font-family="Helvetica" font-size="1.2em" text-anchor="start">NHS NUMBER</text>
  </g>
  <g>
    <line x1="225" y1="420" x2="225" y2="615" stroke="white" stroke-width="2" />
    <line x1="215" y1="605" x2="225" y2="615" stroke="white" stroke-width="2" />
    <line x1="235" y1="605" x2="225" y2="615" stroke="white" stroke-width="2" />
    <text x="100" y="728" fill="white" font-size="1em" font-family="Helvetica">Copy value</text>
  </g>
  <g>
    <rect x="25" y="620" width="400" height="80" fill="white" stroke="white" stroke-width="2" rx="10" />
    <text x="38" y="668" fill="#3E5EB2" font-family="Helvetica" font-size="1.2em" text-anchor="start">nhs_number</text>
  </g>
  <g>
    <rect x="445" y="20" width="400" height="400" fill="#3E5EB2" stroke="white" stroke-width="2" />
    <text x="458" y="228" fill="white" font-family="Helvetica" font-size="1.2em" text-anchor="start">START DATE (EPISODE)</text>
  </g>
  <g>
    <line x1="645" y1="420" x2="645" y2="615" stroke="white" stroke-width="2" />
    <line x1="635" y1="605" x2="645" y2="615" stroke="white" stroke-width="2" />
    <line x1="655" y1="605" x2="645" y2="615" stroke="white" stroke-width="2" />
    <text x="520" y="728" fill="white" font-size="1em" font-family="Helvetica">Converts text to dates.</text>
  </g>
  <g>
    <rect x="445" y="620" width="400" height="80" fill="white" stroke="white" stroke-width="2" rx="10" />
    <text x="458" y="668" fill="#3E5EB2" font-family="Helvetica" font-size="1.2em" text-anchor="start">device_exposure_start_date</text>
  </g>
  <g>
    <rect x="865" y="20" width="400" height="190" fill="#3E5EB2" stroke="white" stroke-width="2" />
    <text x="878" y="123" fill="white" font-family="Helvetica" font-size="1.2em" text-anchor="start">START DATE (EPISODE)</text>
  </g>
  <g>
    <rect x="865" y="230" width="400" height="190" fill="#3E5EB2" stroke="white" stroke-width="2" />
    <text x="878" y="333" fill="white" font-family="Helvetica" font-size="1.2em" text-anchor="start">START TIME (EPISODE)</text>
  </g>
  <g>
    <line x1="1065" y1="420" x2="1065" y2="615" stroke="white" stroke-width="2" />
    <line x1="1055" y1="605" x2="1065" y2="615" stroke="white" stroke-width="2" />
    <line x1="1075" y1="605" x2="1065" y2="615" stroke="white" stroke-width="2" />
    <text x="940" y="728" fill="white" font-size="1em" font-family="Helvetica">Combines a date with a</text>
    <text x="940" y="746" fill="white" font-size="1em" font-family="Helvetica">time of day.</text>
  </g>
  <g>
    <rect x="865" y="620" width="400" height="80" fill="white" stroke="white" stroke-width="2" rx="10" />
    <text x="878" y="668" fill="#3E5EB2" font-family="Helvetica" font-size="1.2em" text-anchor="start">device_exposure_start_datetime</text>
  </g>
  <g>
    <rect x="1285" y="20" width="400" height="190" fill="#3E5EB2" stroke="white" stroke-width="2" />
    <text x="1298" y="123" fill="white" font-family="Helvetica" font-size="1.2em" text-anchor="start">CDS ACTIVITY DATE</text>
  </g>
  <g>
    <rect x="1285" y="230" width="400" height="190" fill="#3E5EB2" stroke="white" stroke-width="2" />
    <text x="1298" y="333" fill="white" font-family="Helvetica" font-size="1.2em" text-anchor="start">END DATE (EPISODE)</text>
  </g>
  <g>
    <line x1="1485" y1="420" x2="1485" y2="615" stroke="white" stroke-width="2" />
    <line x1="1475" y1="605" x2="1485" y2="615" stroke="white" stroke-width="2" />
    <line x1="1495" y1="605" x2="1485" y2="615" stroke="white" stroke-width="2" />
    <text x="1360" y="728" fill="white" font-size="1em" font-family="Helvetica">Converts text to dates.</text>
  </g>
  <g>
    <rect x="1285" y="620" width="400" height="80" fill="white" stroke="white" stroke-width="2" rx="10" />
    <text x="1298" y="668" fill="#3E5EB2" font-family="Helvetica" font-size="1.2em" text-anchor="start">device_exposure_end_date</text>
  </g>
  <g>
    <rect x="1705" y="20" width="400" height="120" fill="#3E5EB2" stroke="white" stroke-width="2" />
    <text x="1718" y="88" fill="white" font-family="Helvetica" font-size="1.2em" text-anchor="start">CDS ACTIVITY DATE</text>
  </g>
  <g>
    <rect x="1705" y="160" width="400" height="120" fill="#3E5EB2" stroke="white" stroke-width="2" />
    <text x="1718" y="228" fill="white" font-family="Helvetica" font-size="1.2em" text-anchor="start">END DATE (EPISODE)</text>
  </g>
  <g>
    <rect x="1705" y="300" width="400" height="120" fill="#3E5EB2" stroke="white" stroke-width="2" />
    <text x="1718" y="368" fill="white" font-family="Helvetica" font-size="1.2em" text-anchor="start">END TIME (EPISODE)</text>
  </g>
  <g>
    <line x1="1905" y1="420" x2="1905" y2="615" stroke="white" stroke-width="2" />
    <line x1="1895" y1="605" x2="1905" y2="615" stroke="white" stroke-width="2" />
    <line x1="1915" y1="605" x2="1905" y2="615" stroke="white" stroke-width="2" />
    <text x="1780" y="728" fill="white" font-size="1em" font-family="Helvetica">Combines a date with a</text>
    <text x="1780" y="746" fill="white" font-size="1em" font-family="Helvetica">time of day.</text>
  </g>
  <g>
    <rect x="1705" y="620" width="400" height="80" fill="white" stroke="white" stroke-width="2" rx="10" />
    <text x="1718" y="668" fill="#3E5EB2" font-family="Helvetica" font-size="1.2em" text-anchor="start">device_exposure_end_datetime</text>
  </g>
  <g>
    <rect x="2125" y="20" width="400" height="400" fill="#3E5EB2" stroke="white" stroke-width="2" />
    <text x="2138" y="228" fill="white" font-family="Helvetica" font-size="1.2em" text-anchor="start">ACCIDENT AND EMERGENCY</text>
    <text x="2138" y="246" fill="white" font-family="Helvetica" font-size="1.2em" text-anchor="start">INVESTIGATION</text>
  </g>
  <g>
    <line x1="2325" y1="420" x2="2325" y2="615" stroke="white" stroke-width="2" />
    <line x1="2315" y1="605" x2="2325" y2="615" stroke="white" stroke-width="2" />
    <line x1="2335" y1="605" x2="2325" y2="615" stroke="white" stroke-width="2" />
    <text x="2200" y="728" fill="white" font-size="1em" font-family="Helvetica">Lookup discharge destination concept.</text>
  </g>
  <g>
    <rect x="2125" y="620" width="400" height="80" fill="white" stroke="white" stroke-width="2" rx="10" />
    <text x="2138" y="668" fill="#3E5EB2" font-family="Helvetica" font-size="1.2em" text-anchor="start">device_source_concept_id</text>
  </g>
  <g>
    <rect x="2545" y="20" width="400" height="400" fill="#3E5EB2" stroke="white" stroke-width="2" />
    <text x="2558" y="228" fill="white" font-family="Helvetica" font-size="1.2em" text-anchor="start">ACCIDENT AND EMERGENCY</text>
    <text x="2558" y="246" fill="white" font-family="Helvetica" font-size="1.2em" text-anchor="start">INVESTIGATION</text>
  </g>
  <g>
    <line x1="2745" y1="420" x2="2745" y2="615" stroke="white" stroke-width="2" />
    <line x1="2735" y1="605" x2="2745" y2="615" stroke="white" stroke-width="2" />
    <line x1="2755" y1="605" x2="2745" y2="615" stroke="white" stroke-width="2" />
    <text x="2620" y="728" fill="white" font-size="1em" font-family="Helvetica">Copy value</text>
  </g>
  <g>
    <rect x="2545" y="620" width="400" height="80" fill="white" stroke="white" stroke-width="2" rx="10" />
    <text x="2558" y="668" fill="#3E5EB2" font-family="Helvetica" font-size="1.2em" text-anchor="start">device_source_value</text>
  </g>
  <g>
    <rect x="2965" y="20" width="400" height="400" fill="#3E5EB2" stroke="white" stroke-width="2" />
    <text x="2978" y="228" fill="white" font-family="Helvetica" font-size="1.2em" text-anchor="start">A and E</text>
    <text x="2978" y="246" fill="white" font-family="Helvetica" font-size="1.2em" text-anchor="start">ATTENDANCE NUMBER (Retired)</text>
  </g>
  <g>
    <line x1="3165" y1="420" x2="3165" y2="615" stroke="white" stroke-width="2" />
    <line x1="3155" y1="605" x2="3165" y2="615" stroke="white" stroke-width="2" />
    <line x1="3175" y1="605" x2="3165" y2="615" stroke="white" stroke-width="2" />
    <text x="3040" y="728" fill="white" font-size="1em" font-family="Helvetica">Copy value</text>
  </g>
  <g>
    <rect x="2965" y="620" width="400" height="80" fill="white" stroke="white" stroke-width="2" rx="10" />
    <text x="2978" y="668" fill="#3E5EB2" font-family="Helvetica" font-size="1.2em" text-anchor="start">HospitalProviderSpellNumber</text>
  </g>
</svg>