<svg xmlns="http://www.w3.org/2000/svg" width="1500" height="560">
  <rect width="100%" height="100%" fill="white" />
  <a>
    <rect x="10" y="10" width="250" height="50" fill="#fab10c" stroke="black" rx="10" />
    <text x="20" y="40" fill="black" font-family="Helvetica" text-anchor="start">DiagnosisCode</text>
  </a>
  <a>
    <rect x="10" y="110" width="250" height="50" fill="#fab10c" stroke="black" rx="10" />
    <text x="20" y="140" fill="black" font-family="Helvetica" text-anchor="start">DiagnosisId</text>
  </a>
  <a>
    <rect x="10" y="210" width="250" height="50" fill="#fab10c" stroke="black" rx="10" />
    <text x="20" y="240" fill="black" font-family="Helvetica" text-anchor="start">NHSNumber</text>
  </a>
  <a>
    <rect x="10" y="310" width="250" height="50" fill="#fab10c" stroke="black" rx="10" />
    <text x="20" y="340" fill="black" font-family="Helvetica" text-anchor="start">CDSActivityDate</text>
  </a>
  <a href="ConditionOccurrence_nhs_number.md">
    <rect x="400" y="10" width="250" height="50" fill="#3c4459" stroke="black" rx="10" />
    <text x="410" y="40" fill="white" font-family="Helvetica" text-anchor="start">nhs_number</text>
  </a>
  <a href="ConditionOccurrence_cds_diagnosis_id.md">
    <rect x="400" y="110" width="250" height="50" fill="#3c4459" stroke="black" rx="10" />
    <text x="410" y="140" fill="white" font-family="Helvetica" text-anchor="start">cds_diagnosis_id</text>
  </a>
  <a href="ConditionOccurrence_condition_concept_id.md">
    <rect x="400" y="210" width="250" height="50" fill="#3c4459" stroke="black" rx="10" />
    <text x="410" y="240" fill="white" font-family="Helvetica" text-anchor="start">condition_concept_id</text>
  </a>
  <a href="ConditionOccurrence_condition_start_date.md">
    <rect x="400" y="310" width="250" height="50" fill="#3c4459" stroke="black" rx="10" />
    <text x="410" y="340" fill="white" font-family="Helvetica" text-anchor="start">condition_start_date</text>
  </a>
  <a href="ConditionOccurrence_condition_source_value.md">
    <rect x="400" y="410" width="250" height="50" fill="#3c4459" stroke="black" rx="10" />
    <text x="410" y="440" fill="white" font-family="Helvetica" text-anchor="start">condition_source_value</text>
  </a>
  <g>
    <line x1="260" y1="235" x2="400" y2="35" stroke="#000000" stroke-width="2" />
    <text x="660" y="40" fill="black" font-family="Helvetica" text-anchor="start">Copy value.</text>
  </g>
  <g>
    <line x1="260" y1="35" x2="400" y2="235" stroke="#b0a9af" stroke-width="2" />
    <text x="660" y="240" fill="black" font-family="Helvetica" text-anchor="start">Resolve ICD10 codes to OMOP concepts. If code cannot be mapped, map using the parent code.</text>
  </g>
  <g>
    <line x1="260" y1="335" x2="400" y2="335" stroke="#3c445a" stroke-width="2" />
    <text x="660" y="340" fill="black" font-family="Helvetica" text-anchor="start">Converts text to dates.</text>
  </g>
  <g>
    <line x1="260" y1="135" x2="400" y2="135" stroke="#000000" stroke-width="2" />
    <text x="660" y="140" fill="black" font-family="Helvetica" text-anchor="start">Copy value.</text>
  </g>
  <g>
    <line x1="260" y1="35" x2="400" y2="435" stroke="#b0a9af" stroke-width="2" />
    <text x="660" y="440" fill="black" font-family="Helvetica" text-anchor="start">Copy value.</text>
  </g>
</svg>