<svg xmlns="http://www.w3.org/2000/svg" width="865" height="800">
  <rect width="100%" height="100%" fill="#3E5EB2" />
  <g>
    <rect x="25" y="20" width="250" height="400" fill="#3E5EB2" stroke="white" stroke-width="2" />
    <text x="35" y="225" fill="white" font-family="Helvetica" font-size="1.2em" text-anchor="start">nhs_number</text>
  </g>
  <g>
    <line x1="150" y1="420" x2="150" y2="615" stroke="white" stroke-width="2" />
    <line x1="140" y1="605" x2="150" y2="615" stroke="white" stroke-width="2" />
    <line x1="160" y1="605" x2="150" y2="615" stroke="white" stroke-width="2" />
    <text x="25" y="728" fill="white" font-size="1em" font-family="Helvetica">Copy value.</text>
  </g>
  <g>
    <rect x="25" y="620" width="250" height="80" fill="white" stroke="white" stroke-width="2" rx="10" />
    <text x="35" y="665" fill="#3E5EB2" font-family="Helvetica" font-size="1.2em" text-anchor="start">NhsNumber</text>
  </g>
  <g>
    <rect x="295" y="20" width="250" height="400" fill="#3E5EB2" stroke="white" stroke-width="2" />
    <text x="305" y="225" fill="white" font-family="Helvetica" font-size="1.2em" text-anchor="start">death_date</text>
  </g>
  <g>
    <line x1="420" y1="420" x2="420" y2="615" stroke="white" stroke-width="2" />
    <line x1="410" y1="605" x2="420" y2="615" stroke="white" stroke-width="2" />
    <line x1="430" y1="605" x2="420" y2="615" stroke="white" stroke-width="2" />
    <text x="295" y="728" fill="white" font-size="1em" font-family="Helvetica">Converts text to dates.</text>
  </g>
  <g>
    <rect x="295" y="620" width="250" height="80" fill="white" stroke="white" stroke-width="2" rx="10" />
    <text x="305" y="665" fill="#3E5EB2" font-family="Helvetica" font-size="1.2em" text-anchor="start">death_date</text>
  </g>
  <g>
    <rect x="565" y="20" width="250" height="400" fill="#3E5EB2" stroke="white" stroke-width="2" />
    <text x="575" y="225" fill="white" font-family="Helvetica" font-size="1.2em" text-anchor="start">death_date</text>
  </g>
  <g>
    <line x1="690" y1="420" x2="690" y2="615" stroke="white" stroke-width="2" />
    <line x1="680" y1="605" x2="690" y2="615" stroke="white" stroke-width="2" />
    <line x1="700" y1="605" x2="690" y2="615" stroke="white" stroke-width="2" />
    <text x="565" y="728" fill="white" font-size="1em" font-family="Helvetica">Converts text to dates.</text>
  </g>
  <g>
    <rect x="565" y="620" width="250" height="80" fill="white" stroke="white" stroke-width="2" rx="10" />
    <text x="575" y="665" fill="#3E5EB2" font-family="Helvetica" font-size="1.2em" text-anchor="start">death_datetime</text>
  </g>
</svg>