<svg xmlns="http://www.w3.org/2000/svg" width="1500" height="760">
  <rect width="100%" height="100%" fill="white" />
  <a>
    <rect x="10" y="10" width="250" height="50" fill="#fab10c" stroke="black" rx="10" />
    <text x="20" y="40" fill="black" font-family="Helvetica" text-anchor="start">PatientAddressStructured1</text>
  </a>
  <a>
    <rect x="10" y="110" width="250" height="50" fill="#fab10c" stroke="black" rx="10" />
    <text x="20" y="140" fill="black" font-family="Helvetica" text-anchor="start">PatientAddressStructured2</text>
  </a>
  <a>
    <rect x="10" y="210" width="250" height="50" fill="#fab10c" stroke="black" rx="10" />
    <text x="20" y="240" fill="black" font-family="Helvetica" text-anchor="start">PatientAddressStructured3</text>
  </a>
  <a>
    <rect x="10" y="310" width="250" height="50" fill="#fab10c" stroke="black" rx="10" />
    <text x="20" y="340" fill="black" font-family="Helvetica" text-anchor="start">PatientAddressStructured4</text>
  </a>
  <a>
    <rect x="10" y="410" width="250" height="50" fill="#fab10c" stroke="black" rx="10" />
    <text x="20" y="440" fill="black" font-family="Helvetica" text-anchor="start">PatientAddressStructured5</text>
  </a>
  <a>
    <rect x="10" y="510" width="250" height="50" fill="#fab10c" stroke="black" rx="10" />
    <text x="20" y="540" fill="black" font-family="Helvetica" text-anchor="start">Postcode</text>
  </a>
  <a>
    <rect x="10" y="610" width="250" height="50" fill="#fab10c" stroke="black" rx="10" />
    <text x="20" y="640" fill="black" font-family="Helvetica" text-anchor="start">NhsNumber</text>
  </a>
  <a href="Location_address_1.md">
    <rect x="400" y="10" width="250" height="50" fill="#3c4459" stroke="black" rx="10" />
    <text x="410" y="40" fill="white" font-family="Helvetica" text-anchor="start">address_1</text>
  </a>
  <a href="Location_address_2.md">
    <rect x="400" y="110" width="250" height="50" fill="#3c4459" stroke="black" rx="10" />
    <text x="410" y="140" fill="white" font-family="Helvetica" text-anchor="start">address_2</text>
  </a>
  <a href="Location_city.md">
    <rect x="400" y="210" width="250" height="50" fill="#3c4459" stroke="black" rx="10" />
    <text x="410" y="240" fill="white" font-family="Helvetica" text-anchor="start">city</text>
  </a>
  <a href="Location_zip.md">
    <rect x="400" y="310" width="250" height="50" fill="#3c4459" stroke="black" rx="10" />
    <text x="410" y="340" fill="white" font-family="Helvetica" text-anchor="start">zip</text>
  </a>
  <a href="Location_county.md">
    <rect x="400" y="410" width="250" height="50" fill="#3c4459" stroke="black" rx="10" />
    <text x="410" y="440" fill="white" font-family="Helvetica" text-anchor="start">county</text>
  </a>
  <a href="Location_location_source_value.md">
    <rect x="400" y="510" width="250" height="50" fill="#3c4459" stroke="black" rx="10" />
    <text x="410" y="540" fill="white" font-family="Helvetica" text-anchor="start">location_source_value</text>
  </a>
  <a href="Location_nhs_number.md">
    <rect x="400" y="610" width="250" height="50" fill="#3c4459" stroke="black" rx="10" />
    <text x="410" y="640" fill="white" font-family="Helvetica" text-anchor="start">nhs_number</text>
  </a>
  <g>
    <line x1="260" y1="35" x2="400" y2="35" stroke="#000000" stroke-width="2" />
    <text x="660" y="40" fill="black" font-family="Helvetica" text-anchor="start">Separates text with newlines. Trim whitespace.</text>
  </g>
  <g>
    <line x1="260" y1="135" x2="400" y2="35" stroke="#b0a9af" stroke-width="2" />
    <text x="660" y="40" fill="black" font-family="Helvetica" text-anchor="start">Separates text with newlines. Trim whitespace.</text>
  </g>
  <g>
    <line x1="260" y1="235" x2="400" y2="135" stroke="#3c445a" stroke-width="2" />
    <text x="660" y="140" fill="black" font-family="Helvetica" text-anchor="start">Copy value.</text>
  </g>
  <g>
    <line x1="260" y1="335" x2="400" y2="235" stroke="#000000" stroke-width="2" />
    <text x="660" y="240" fill="black" font-family="Helvetica" text-anchor="start">Copy value.</text>
  </g>
  <g>
    <line x1="260" y1="435" x2="400" y2="435" stroke="#b0a9af" stroke-width="2" />
    <text x="660" y="440" fill="black" font-family="Helvetica" text-anchor="start">Copy value.</text>
  </g>
  <g>
    <line x1="260" y1="535" x2="400" y2="335" stroke="#3c445a" stroke-width="2" />
    <text x="660" y="340" fill="black" font-family="Helvetica" text-anchor="start">Uppercase the postcode then insert the space in the correct location, if needed.</text>
  </g>
  <g>
    <line x1="260" y1="35" x2="400" y2="535" stroke="#000000" stroke-width="2" />
    <text x="660" y="540" fill="black" font-family="Helvetica" text-anchor="start">Separates text with newlines. Trim whitespace.</text>
  </g>
  <g>
    <line x1="260" y1="135" x2="400" y2="535" stroke="#b0a9af" stroke-width="2" />
    <text x="660" y="540" fill="black" font-family="Helvetica" text-anchor="start">Separates text with newlines. Trim whitespace.</text>
  </g>
  <g>
    <line x1="260" y1="235" x2="400" y2="535" stroke="#3c445a" stroke-width="2" />
    <text x="660" y="540" fill="black" font-family="Helvetica" text-anchor="start">Separates text with newlines. Trim whitespace.</text>
  </g>
  <g>
    <line x1="260" y1="335" x2="400" y2="535" stroke="#000000" stroke-width="2" />
    <text x="660" y="540" fill="black" font-family="Helvetica" text-anchor="start">Separates text with newlines. Trim whitespace.</text>
  </g>
  <g>
    <line x1="260" y1="435" x2="400" y2="535" stroke="#b0a9af" stroke-width="2" />
    <text x="660" y="540" fill="black" font-family="Helvetica" text-anchor="start">Separates text with newlines. Trim whitespace.</text>
  </g>
  <g>
    <line x1="260" y1="535" x2="400" y2="535" stroke="#3c445a" stroke-width="2" />
    <text x="660" y="540" fill="black" font-family="Helvetica" text-anchor="start">Separates text with newlines. Trim whitespace.</text>
  </g>
  <g>
    <line x1="260" y1="635" x2="400" y2="635" stroke="#000000" stroke-width="2" />
    <text x="660" y="640" fill="black" font-family="Helvetica" text-anchor="start">Copy value.</text>
  </g>
</svg>