<svg xmlns="http://www.w3.org/2000/svg" width="5095" height="800">
  <rect width="100%" height="100%" fill="#3E5EB2" />
  <g>
    <rect x="25" y="20" width="400" height="400" fill="#3E5EB2" stroke="white" stroke-width="2" />
    <text x="35" y="225" fill="white" font-family="Helvetica" font-size="1.2em" text-anchor="start">NHS NUMBER</text>
  </g>
  <g>
    <line x1="225" y1="420" x2="225" y2="615" stroke="white" stroke-width="2" />
    <line x1="215" y1="605" x2="225" y2="615" stroke="white" stroke-width="2" />
    <line x1="235" y1="605" x2="225" y2="615" stroke="white" stroke-width="2" />
    <text x="100" y="728" fill="white" font-size="1em" font-family="Helvetica">Copy value</text>
  </g>
  <g>
    <rect x="25" y="620" width="400" height="80" fill="white" stroke="white" stroke-width="2" rx="10" />
    <text x="35" y="665" fill="#3E5EB2" font-family="Helvetica" font-size="1.2em" text-anchor="start">NhsNumber</text>
  </g>
  <g>
    <rect x="445" y="20" width="400" height="400" fill="#3E5EB2" stroke="white" stroke-width="2" />
    <text x="455" y="225" fill="white" font-family="Helvetica" font-size="1.2em" text-anchor="start">HOSPITAL PROVIDER SPELL NUMBER</text>
  </g>
  <g>
    <line x1="645" y1="420" x2="645" y2="615" stroke="white" stroke-width="2" />
    <line x1="635" y1="605" x2="645" y2="615" stroke="white" stroke-width="2" />
    <line x1="655" y1="605" x2="645" y2="615" stroke="white" stroke-width="2" />
    <text x="520" y="728" fill="white" font-size="1em" font-family="Helvetica">Converts text to integers.</text>
  </g>
  <g>
    <rect x="445" y="620" width="400" height="80" fill="white" stroke="white" stroke-width="2" rx="10" />
    <text x="455" y="665" fill="#3E5EB2" font-family="Helvetica" font-size="1.2em" text-anchor="start">HospitalProviderSpellNumber</text>
  </g>
  <g>
    <rect x="865" y="20" width="400" height="400" fill="#3E5EB2" stroke="white" stroke-width="2" />
    <text x="875" y="225" fill="white" font-family="Helvetica" font-size="1.2em" text-anchor="start">START DATE (EPISODE)</text>
  </g>
  <g>
    <line x1="1065" y1="420" x2="1065" y2="615" stroke="white" stroke-width="2" />
    <line x1="1055" y1="605" x2="1065" y2="615" stroke="white" stroke-width="2" />
    <line x1="1075" y1="605" x2="1065" y2="615" stroke="white" stroke-width="2" />
    <text x="940" y="728" fill="white" font-size="1em" font-family="Helvetica">Converts text to dates.</text>
  </g>
  <g>
    <rect x="865" y="620" width="400" height="80" fill="white" stroke="white" stroke-width="2" rx="10" />
    <text x="875" y="665" fill="#3E5EB2" font-family="Helvetica" font-size="1.2em" text-anchor="start">visit_start_date</text>
  </g>
  <g>
    <rect x="1285" y="20" width="400" height="190" fill="#3E5EB2" stroke="white" stroke-width="2" />
    <text x="1295" y="120" fill="white" font-family="Helvetica" font-size="1.2em" text-anchor="start">START DATE (EPISODE)</text>
  </g>
  <g>
    <rect x="1285" y="230" width="400" height="190" fill="#3E5EB2" stroke="white" stroke-width="2" />
    <text x="1295" y="330" fill="white" font-family="Helvetica" font-size="1.2em" text-anchor="start">START TIME (EPISODE)</text>
  </g>
  <g>
    <line x1="1485" y1="420" x2="1485" y2="615" stroke="white" stroke-width="2" />
    <line x1="1475" y1="605" x2="1485" y2="615" stroke="white" stroke-width="2" />
    <line x1="1495" y1="605" x2="1485" y2="615" stroke="white" stroke-width="2" />
    <text x="1360" y="728" fill="white" font-size="1em" font-family="Helvetica">Combines a date with a</text>
    <text x="1360" y="746" fill="white" font-size="1em" font-family="Helvetica">time of day.</text>
  </g>
  <g>
    <rect x="1285" y="620" width="400" height="80" fill="white" stroke="white" stroke-width="2" rx="10" />
    <text x="1295" y="665" fill="#3E5EB2" font-family="Helvetica" font-size="1.2em" text-anchor="start">visit_start_datetime</text>
  </g>
  <g>
    <rect x="1705" y="20" width="400" height="190" fill="#3E5EB2" stroke="white" stroke-width="2" />
    <text x="1715" y="120" fill="white" font-family="Helvetica" font-size="1.2em" text-anchor="start">CDS ACTIVITY DATE</text>
  </g>
  <g>
    <rect x="1705" y="230" width="400" height="190" fill="#3E5EB2" stroke="white" stroke-width="2" />
    <text x="1715" y="330" fill="white" font-family="Helvetica" font-size="1.2em" text-anchor="start">END DATE (EPISODE)</text>
  </g>
  <g>
    <line x1="1905" y1="420" x2="1905" y2="615" stroke="white" stroke-width="2" />
    <line x1="1895" y1="605" x2="1905" y2="615" stroke="white" stroke-width="2" />
    <line x1="1915" y1="605" x2="1905" y2="615" stroke="white" stroke-width="2" />
    <text x="1780" y="728" fill="white" font-size="1em" font-family="Helvetica">Converts text to dates.</text>
  </g>
  <g>
    <rect x="1705" y="620" width="400" height="80" fill="white" stroke="white" stroke-width="2" rx="10" />
    <text x="1715" y="665" fill="#3E5EB2" font-family="Helvetica" font-size="1.2em" text-anchor="start">visit_end_date</text>
  </g>
  <g>
    <rect x="2125" y="20" width="400" height="120" fill="#3E5EB2" stroke="white" stroke-width="2" />
    <text x="2135" y="85" fill="white" font-family="Helvetica" font-size="1.2em" text-anchor="start">CDS ACTIVITY DATE</text>
  </g>
  <g>
    <rect x="2125" y="160" width="400" height="120" fill="#3E5EB2" stroke="white" stroke-width="2" />
    <text x="2135" y="225" fill="white" font-family="Helvetica" font-size="1.2em" text-anchor="start">END DATE (EPISODE)</text>
  </g>
  <g>
    <rect x="2125" y="300" width="400" height="120" fill="#3E5EB2" stroke="white" stroke-width="2" />
    <text x="2135" y="365" fill="white" font-family="Helvetica" font-size="1.2em" text-anchor="start">END TIME (EPISODE)</text>
  </g>
  <g>
    <line x1="2325" y1="420" x2="2325" y2="615" stroke="white" stroke-width="2" />
    <line x1="2315" y1="605" x2="2325" y2="615" stroke="white" stroke-width="2" />
    <line x1="2335" y1="605" x2="2325" y2="615" stroke="white" stroke-width="2" />
    <text x="2200" y="728" fill="white" font-size="1em" font-family="Helvetica">Combines a date with a</text>
    <text x="2200" y="746" fill="white" font-size="1em" font-family="Helvetica">time of day.</text>
  </g>
  <g>
    <rect x="2125" y="620" width="400" height="80" fill="white" stroke="white" stroke-width="2" rx="10" />
    <text x="2135" y="665" fill="#3E5EB2" font-family="Helvetica" font-size="1.2em" text-anchor="start">visit_end_datetime</text>
  </g>
  <g>
    <rect x="2545" y="20" width="400" height="120" fill="#3E5EB2" stroke="white" stroke-width="2" />
    <text x="2555" y="85" fill="white" font-family="Helvetica" font-size="1.2em" text-anchor="start">ADMISSION METHOD CODE (HOSPITAL PROVIDER SPELL)</text>
  </g>
  <g>
    <rect x="2545" y="160" width="400" height="120" fill="#3E5EB2" stroke="white" stroke-width="2" />
    <text x="2555" y="225" fill="white" font-family="Helvetica" font-size="1.2em" text-anchor="start">PATIENT CLASSIFICATION CODE</text>
  </g>
  <g>
    <rect x="2545" y="300" width="400" height="120" fill="#3E5EB2" stroke="white" stroke-width="2" />
    <text x="2555" y="365" fill="white" font-family="Helvetica" font-size="1.2em" text-anchor="start">LOCATION CLASS</text>
  </g>
  <g>
    <line x1="2745" y1="420" x2="2745" y2="615" stroke="white" stroke-width="2" />
    <line x1="2735" y1="605" x2="2745" y2="615" stroke="white" stroke-width="2" />
    <line x1="2755" y1="605" x2="2745" y2="615" stroke="white" stroke-width="2" />
    <text x="2620" y="728" fill="white" font-size="1em" font-family="Helvetica">Copy value</text>
  </g>
  <g>
    <rect x="2545" y="620" width="400" height="80" fill="white" stroke="white" stroke-width="2" rx="10" />
    <text x="2555" y="665" fill="#3E5EB2" font-family="Helvetica" font-size="1.2em" text-anchor="start">visit_concept_id</text>
  </g>
  <g>
    <rect x="2965" y="20" width="400" height="120" fill="#3E5EB2" stroke="white" stroke-width="2" />
    <text x="2975" y="85" fill="white" font-family="Helvetica" font-size="1.2em" text-anchor="start">END DATE (EPISODE)</text>
  </g>
  <g>
    <rect x="2965" y="160" width="400" height="120" fill="#3E5EB2" stroke="white" stroke-width="2" />
    <text x="2975" y="225" fill="white" font-family="Helvetica" font-size="1.2em" text-anchor="start">DISCHARGE DATE (HOSPITAL PROVIDER SPELL)</text>
  </g>
  <g>
    <rect x="2965" y="300" width="400" height="120" fill="#3E5EB2" stroke="white" stroke-width="2" />
    <text x="2975" y="365" fill="white" font-family="Helvetica" font-size="1.2em" text-anchor="start">PATIENT CLASSIFICATION CODE</text>
  </g>
  <g>
    <line x1="3165" y1="420" x2="3165" y2="615" stroke="white" stroke-width="2" />
    <line x1="3155" y1="605" x2="3165" y2="615" stroke="white" stroke-width="2" />
    <line x1="3175" y1="605" x2="3165" y2="615" stroke="white" stroke-width="2" />
    <text x="3040" y="728" fill="white" font-size="1em" font-family="Helvetica">Copy value</text>
  </g>
  <g>
    <rect x="2965" y="620" width="400" height="80" fill="white" stroke="white" stroke-width="2" rx="10" />
    <text x="2975" y="665" fill="#3E5EB2" font-family="Helvetica" font-size="1.2em" text-anchor="start">visit_type_concept_id</text>
  </g>
  <g>
    <rect x="3385" y="20" width="400" height="400" fill="#3E5EB2" stroke="white" stroke-width="2" />
    <text x="3395" y="225" fill="white" font-family="Helvetica" font-size="1.2em" text-anchor="start">ADMISSION SOURCE (HOSPITAL PROVIDER SPELL)</text>
  </g>
  <g>
    <line x1="3585" y1="420" x2="3585" y2="615" stroke="white" stroke-width="2" />
    <line x1="3575" y1="605" x2="3585" y2="615" stroke="white" stroke-width="2" />
    <line x1="3595" y1="605" x2="3585" y2="615" stroke="white" stroke-width="2" />
    <text x="3460" y="728" fill="white" font-size="1em" font-family="Helvetica">Lookup admission source concept.</text>
  </g>
  <g>
    <rect x="3385" y="620" width="400" height="80" fill="white" stroke="white" stroke-width="2" rx="10" />
    <text x="3395" y="665" fill="#3E5EB2" font-family="Helvetica" font-size="1.2em" text-anchor="start">admitted_from_concept_id</text>
  </g>
  <g>
    <rect x="3805" y="20" width="400" height="400" fill="#3E5EB2" stroke="white" stroke-width="2" />
    <text x="3815" y="225" fill="white" font-family="Helvetica" font-size="1.2em" text-anchor="start">ADMISSION SOURCE (HOSPITAL PROVIDER SPELL)</text>
  </g>
  <g>
    <line x1="4005" y1="420" x2="4005" y2="615" stroke="white" stroke-width="2" />
    <line x1="3995" y1="605" x2="4005" y2="615" stroke="white" stroke-width="2" />
    <line x1="4015" y1="605" x2="4005" y2="615" stroke="white" stroke-width="2" />
    <text x="3880" y="728" fill="white" font-size="1em" font-family="Helvetica">Copy value</text>
  </g>
  <g>
    <rect x="3805" y="620" width="400" height="80" fill="white" stroke="white" stroke-width="2" rx="10" />
    <text x="3815" y="665" fill="#3E5EB2" font-family="Helvetica" font-size="1.2em" text-anchor="start">admitted_from_source_value</text>
  </g>
  <g>
    <rect x="4225" y="20" width="400" height="400" fill="#3E5EB2" stroke="white" stroke-width="2" />
    <text x="4235" y="225" fill="white" font-family="Helvetica" font-size="1.2em" text-anchor="start">DISCHARGE DESTINATION CODE (HOSPITAL PROVIDER SPELL)</text>
  </g>
  <g>
    <line x1="4425" y1="420" x2="4425" y2="615" stroke="white" stroke-width="2" />
    <line x1="4415" y1="605" x2="4425" y2="615" stroke="white" stroke-width="2" />
    <line x1="4435" y1="605" x2="4425" y2="615" stroke="white" stroke-width="2" />
    <text x="4300" y="728" fill="white" font-size="1em" font-family="Helvetica">Lookup discharge destination concept.</text>
  </g>
  <g>
    <rect x="4225" y="620" width="400" height="80" fill="white" stroke="white" stroke-width="2" rx="10" />
    <text x="4235" y="665" fill="#3E5EB2" font-family="Helvetica" font-size="1.2em" text-anchor="start">discharged_to_concept_id</text>
  </g>
  <g>
    <rect x="4645" y="20" width="400" height="400" fill="#3E5EB2" stroke="white" stroke-width="2" />
    <text x="4655" y="225" fill="white" font-family="Helvetica" font-size="1.2em" text-anchor="start">DISCHARGE DESTINATION CODE (HOSPITAL PROVIDER SPELL)</text>
  </g>
  <g>
    <line x1="4845" y1="420" x2="4845" y2="615" stroke="white" stroke-width="2" />
    <line x1="4835" y1="605" x2="4845" y2="615" stroke="white" stroke-width="2" />
    <line x1="4855" y1="605" x2="4845" y2="615" stroke="white" stroke-width="2" />
    <text x="4720" y="728" fill="white" font-size="1em" font-family="Helvetica">Copy value</text>
  </g>
  <g>
    <rect x="4645" y="620" width="400" height="80" fill="white" stroke="white" stroke-width="2" rx="10" />
    <text x="4655" y="665" fill="#3E5EB2" font-family="Helvetica" font-size="1.2em" text-anchor="start">discharged_to_source_value</text>
  </g>
</svg>