<svg xmlns="http://www.w3.org/2000/svg" width="1500" height="860">
  <rect width="100%" height="100%" fill="white" />
  <a>
    <rect x="10" y="10" width="250" height="50" fill="#fab10c" stroke="black" rx="10" />
    <text x="20" y="40" fill="black" font-family="Helvetica" text-anchor="start">NHSNumber</text>
  </a>
  <a>
    <rect x="10" y="110" width="250" height="50" fill="#fab10c" stroke="black" rx="10" />
    <text x="20" y="140" fill="black" font-family="Helvetica" text-anchor="start">HospitalProviderSpellNumber</text>
  </a>
  <a>
    <rect x="10" y="210" width="250" height="50" fill="#fab10c" stroke="black" rx="10" />
    <text x="20" y="240" fill="black" font-family="Helvetica" text-anchor="start">EpisodeStartDate</text>
  </a>
  <a>
    <rect x="10" y="310" width="250" height="50" fill="#fab10c" stroke="black" rx="10" />
    <text x="20" y="340" fill="black" font-family="Helvetica" text-anchor="start">EpisodeStartTime</text>
  </a>
  <a>
    <rect x="10" y="410" width="250" height="50" fill="#fab10c" stroke="black" rx="10" />
    <text x="20" y="440" fill="black" font-family="Helvetica" text-anchor="start">EpisodeEndDate</text>
  </a>
  <a>
    <rect x="10" y="510" width="250" height="50" fill="#fab10c" stroke="black" rx="10" />
    <text x="20" y="540" fill="black" font-family="Helvetica" text-anchor="start">EpisodeEndTime</text>
  </a>
  <a>
    <rect x="10" y="610" width="250" height="50" fill="#fab10c" stroke="black" rx="10" />
    <text x="20" y="640" fill="black" font-family="Helvetica" text-anchor="start">VisitOccurenceConceptId</text>
  </a>
  <a>
    <rect x="10" y="710" width="250" height="50" fill="#fab10c" stroke="black" rx="10" />
    <text x="20" y="740" fill="black" font-family="Helvetica" text-anchor="start">VisitTypeConceptId</text>
  </a>
  <a href="VisitOccurrence_NhsNumber.md">
    <rect x="400" y="10" width="250" height="50" fill="#3c4459" stroke="black" rx="10" />
    <text x="410" y="40" fill="white" font-family="Helvetica" text-anchor="start">NhsNumber</text>
  </a>
  <a href="VisitOccurrence_visit_concept_id.md">
    <rect x="400" y="110" width="250" height="50" fill="#3c4459" stroke="black" rx="10" />
    <text x="410" y="140" fill="white" font-family="Helvetica" text-anchor="start">visit_concept_id</text>
  </a>
  <a href="VisitOccurrence_visit_start_date.md">
    <rect x="400" y="210" width="250" height="50" fill="#3c4459" stroke="black" rx="10" />
    <text x="410" y="240" fill="white" font-family="Helvetica" text-anchor="start">visit_start_date</text>
  </a>
  <a href="VisitOccurrence_visit_start_datetime.md">
    <rect x="400" y="310" width="250" height="50" fill="#3c4459" stroke="black" rx="10" />
    <text x="410" y="340" fill="white" font-family="Helvetica" text-anchor="start">visit_start_datetime</text>
  </a>
  <a href="VisitOccurrence_visit_end_date.md">
    <rect x="400" y="410" width="250" height="50" fill="#3c4459" stroke="black" rx="10" />
    <text x="410" y="440" fill="white" font-family="Helvetica" text-anchor="start">visit_end_date</text>
  </a>
  <a href="VisitOccurrence_visit_end_datetime.md">
    <rect x="400" y="510" width="250" height="50" fill="#3c4459" stroke="black" rx="10" />
    <text x="410" y="540" fill="white" font-family="Helvetica" text-anchor="start">visit_end_datetime</text>
  </a>
  <a href="VisitOccurrence_visit_type_concept_id.md">
    <rect x="400" y="610" width="250" height="50" fill="#3c4459" stroke="black" rx="10" />
    <text x="410" y="640" fill="white" font-family="Helvetica" text-anchor="start">visit_type_concept_id</text>
  </a>
  <a href="VisitOccurrence_HospitalProviderSpellNumber.md">
    <rect x="400" y="710" width="250" height="50" fill="#3c4459" stroke="black" rx="10" />
    <text x="410" y="740" fill="white" font-family="Helvetica" text-anchor="start">HospitalProviderSpellNumber</text>
  </a>
  <g>
    <line x1="260" y1="35" x2="400" y2="35" stroke="#000000" stroke-width="2" />
    <text x="660" y="40" fill="black" font-family="Helvetica" text-anchor="start">Copy value.</text>
  </g>
  <g>
    <line x1="260" y1="135" x2="400" y2="735" stroke="#b0a9af" stroke-width="2" />
    <text x="660" y="740" fill="black" font-family="Helvetica" text-anchor="start">Converts text to integers.</text>
  </g>
  <g>
    <line x1="260" y1="235" x2="400" y2="235" stroke="#3c445a" stroke-width="2" />
    <text x="660" y="240" fill="black" font-family="Helvetica" text-anchor="start">Converts text to dates.</text>
  </g>
  <g>
    <line x1="260" y1="235" x2="400" y2="335" stroke="#000000" stroke-width="2" />
    <text x="660" y="340" fill="black" font-family="Helvetica" text-anchor="start">Combines a date with a time of day.</text>
  </g>
  <g>
    <line x1="260" y1="335" x2="400" y2="335" stroke="#b0a9af" stroke-width="2" />
    <text x="660" y="340" fill="black" font-family="Helvetica" text-anchor="start">Combines a date with a time of day.</text>
  </g>
  <g>
    <line x1="260" y1="435" x2="400" y2="435" stroke="#3c445a" stroke-width="2" />
    <text x="660" y="440" fill="black" font-family="Helvetica" text-anchor="start">Converts text to dates.</text>
  </g>
  <g>
    <line x1="260" y1="435" x2="400" y2="535" stroke="#000000" stroke-width="2" />
    <text x="660" y="540" fill="black" font-family="Helvetica" text-anchor="start">Combines a date with a time of day.</text>
  </g>
  <g>
    <line x1="260" y1="535" x2="400" y2="535" stroke="#b0a9af" stroke-width="2" />
    <text x="660" y="540" fill="black" font-family="Helvetica" text-anchor="start">Combines a date with a time of day.</text>
  </g>
  <g>
    <line x1="260" y1="635" x2="400" y2="135" stroke="#3c445a" stroke-width="2" />
    <text x="660" y="140" fill="black" font-family="Helvetica" text-anchor="start">Copy value.</text>
  </g>
  <g>
    <line x1="260" y1="735" x2="400" y2="635" stroke="#000000" stroke-width="2" />
    <text x="660" y="640" fill="black" font-family="Helvetica" text-anchor="start">Copy value.</text>
  </g>
</svg>