<svg xmlns="http://www.w3.org/2000/svg" width="2995" height="800">
  <rect width="100%" height="100%" fill="#3E5EB2" />
  <g>
    <rect x="25" y="20" width="400" height="400" fill="#3E5EB2" stroke="white" stroke-width="2" />
    <text x="35" y="225" fill="white" font-family="Helvetica" font-size="1.2em" text-anchor="start">POSTCODE OF USUAL ADDRESS (AT DIAGNOSIS)</text>
  </g>
  <g>
    <line x1="225" y1="420" x2="225" y2="615" stroke="white" stroke-width="2" />
    <line x1="215" y1="605" x2="225" y2="615" stroke="white" stroke-width="2" />
    <line x1="235" y1="605" x2="225" y2="615" stroke="white" stroke-width="2" />
    <text x="100" y="728" fill="white" font-size="1em" font-family="Helvetica">Uppercase the postcode then insert</text>
    <text x="100" y="746" fill="white" font-size="1em" font-family="Helvetica">the space in the correct</text>
    <text x="100" y="764" fill="white" font-size="1em" font-family="Helvetica">location, if needed.</text>
  </g>
  <g>
    <rect x="25" y="620" width="400" height="80" fill="white" stroke="white" stroke-width="2" rx="10" />
    <text x="35" y="665" fill="#3E5EB2" font-family="Helvetica" font-size="1.2em" text-anchor="start">zip</text>
  </g>
  <g>
    <rect x="445" y="20" width="400" height="64" fill="#3E5EB2" stroke="white" stroke-width="2" />
    <text x="455" y="57" fill="white" font-family="Helvetica" font-size="1.2em" text-anchor="start">PATIENT USUAL ADDRESS (AT DIAGNOSIS)</text>
  </g>
  <g>
    <rect x="445" y="104" width="400" height="64" fill="#3E5EB2" stroke="white" stroke-width="2" />
    <text x="455" y="141" fill="white" font-family="Helvetica" font-size="1.2em" text-anchor="start">PATIENT USUAL ADDRESS (AT DIAGNOSIS)</text>
  </g>
  <g>
    <rect x="445" y="188" width="400" height="64" fill="#3E5EB2" stroke="white" stroke-width="2" />
    <text x="455" y="225" fill="white" font-family="Helvetica" font-size="1.2em" text-anchor="start">PATIENT USUAL ADDRESS (AT DIAGNOSIS)</text>
  </g>
  <g>
    <rect x="445" y="272" width="400" height="64" fill="#3E5EB2" stroke="white" stroke-width="2" />
    <text x="455" y="309" fill="white" font-family="Helvetica" font-size="1.2em" text-anchor="start">PATIENT USUAL ADDRESS (AT DIAGNOSIS)</text>
  </g>
  <g>
    <rect x="445" y="356" width="400" height="64" fill="#3E5EB2" stroke="white" stroke-width="2" />
    <text x="455" y="393" fill="white" font-family="Helvetica" font-size="1.2em" text-anchor="start">POSTCODE OF USUAL ADDRESS (AT DIAGNOSIS)</text>
  </g>
  <g>
    <line x1="645" y1="420" x2="645" y2="615" stroke="white" stroke-width="2" />
    <line x1="635" y1="605" x2="645" y2="615" stroke="white" stroke-width="2" />
    <line x1="655" y1="605" x2="645" y2="615" stroke="white" stroke-width="2" />
    <text x="520" y="728" fill="white" font-size="1em" font-family="Helvetica">Separates text with newlines. Trim</text>
    <text x="520" y="746" fill="white" font-size="1em" font-family="Helvetica">whitespace.</text>
  </g>
  <g>
    <rect x="445" y="620" width="400" height="80" fill="white" stroke="white" stroke-width="2" rx="10" />
    <text x="455" y="665" fill="#3E5EB2" font-family="Helvetica" font-size="1.2em" text-anchor="start">location_source_value</text>
  </g>
  <g>
    <rect x="865" y="20" width="400" height="400" fill="#3E5EB2" stroke="white" stroke-width="2" />
    <text x="875" y="225" fill="white" font-family="Helvetica" font-size="1.2em" text-anchor="start">NHS NUMBER</text>
  </g>
  <g>
    <line x1="1065" y1="420" x2="1065" y2="615" stroke="white" stroke-width="2" />
    <line x1="1055" y1="605" x2="1065" y2="615" stroke="white" stroke-width="2" />
    <line x1="1075" y1="605" x2="1065" y2="615" stroke="white" stroke-width="2" />
    <text x="940" y="728" fill="white" font-size="1em" font-family="Helvetica">Copy value</text>
  </g>
  <g>
    <rect x="865" y="620" width="400" height="80" fill="white" stroke="white" stroke-width="2" rx="10" />
    <text x="875" y="665" fill="#3E5EB2" font-family="Helvetica" font-size="1.2em" text-anchor="start">nhs_number</text>
  </g>
  <g>
    <rect x="1285" y="20" width="400" height="400" fill="#3E5EB2" stroke="white" stroke-width="2" />
    <text x="1295" y="225" fill="white" font-family="Helvetica" font-size="1.2em" text-anchor="start">PATIENT USUAL ADDRESS (AT DIAGNOSIS)</text>
  </g>
  <g>
    <line x1="1485" y1="420" x2="1485" y2="615" stroke="white" stroke-width="2" />
    <line x1="1475" y1="605" x2="1485" y2="615" stroke="white" stroke-width="2" />
    <line x1="1495" y1="605" x2="1485" y2="615" stroke="white" stroke-width="2" />
    <text x="1360" y="728" fill="white" font-size="1em" font-family="Helvetica">Convert text to uppercase. Trim</text>
    <text x="1360" y="746" fill="white" font-size="1em" font-family="Helvetica">whitespace.</text>
  </g>
  <g>
    <rect x="1285" y="620" width="400" height="80" fill="white" stroke="white" stroke-width="2" rx="10" />
    <text x="1295" y="665" fill="#3E5EB2" font-family="Helvetica" font-size="1.2em" text-anchor="start">address_1</text>
  </g>
  <g>
    <rect x="1705" y="20" width="400" height="400" fill="#3E5EB2" stroke="white" stroke-width="2" />
    <text x="1715" y="225" fill="white" font-family="Helvetica" font-size="1.2em" text-anchor="start">PATIENT USUAL ADDRESS (AT DIAGNOSIS)</text>
  </g>
  <g>
    <line x1="1905" y1="420" x2="1905" y2="615" stroke="white" stroke-width="2" />
    <line x1="1895" y1="605" x2="1905" y2="615" stroke="white" stroke-width="2" />
    <line x1="1915" y1="605" x2="1905" y2="615" stroke="white" stroke-width="2" />
    <text x="1780" y="728" fill="white" font-size="1em" font-family="Helvetica">Convert text to uppercase. Trim</text>
    <text x="1780" y="746" fill="white" font-size="1em" font-family="Helvetica">whitespace.</text>
  </g>
  <g>
    <rect x="1705" y="620" width="400" height="80" fill="white" stroke="white" stroke-width="2" rx="10" />
    <text x="1715" y="665" fill="#3E5EB2" font-family="Helvetica" font-size="1.2em" text-anchor="start">address_2</text>
  </g>
  <g>
    <rect x="2125" y="20" width="400" height="400" fill="#3E5EB2" stroke="white" stroke-width="2" />
    <text x="2135" y="225" fill="white" font-family="Helvetica" font-size="1.2em" text-anchor="start">PATIENT USUAL ADDRESS (AT DIAGNOSIS)</text>
  </g>
  <g>
    <line x1="2325" y1="420" x2="2325" y2="615" stroke="white" stroke-width="2" />
    <line x1="2315" y1="605" x2="2325" y2="615" stroke="white" stroke-width="2" />
    <line x1="2335" y1="605" x2="2325" y2="615" stroke="white" stroke-width="2" />
    <text x="2200" y="728" fill="white" font-size="1em" font-family="Helvetica">Convert text to uppercase. Trim</text>
    <text x="2200" y="746" fill="white" font-size="1em" font-family="Helvetica">whitespace.</text>
  </g>
  <g>
    <rect x="2125" y="620" width="400" height="80" fill="white" stroke="white" stroke-width="2" rx="10" />
    <text x="2135" y="665" fill="#3E5EB2" font-family="Helvetica" font-size="1.2em" text-anchor="start">city</text>
  </g>
  <g>
    <rect x="2545" y="20" width="400" height="400" fill="#3E5EB2" stroke="white" stroke-width="2" />
    <text x="2555" y="225" fill="white" font-family="Helvetica" font-size="1.2em" text-anchor="start">PATIENT USUAL ADDRESS (AT DIAGNOSIS)</text>
  </g>
  <g>
    <line x1="2745" y1="420" x2="2745" y2="615" stroke="white" stroke-width="2" />
    <line x1="2735" y1="605" x2="2745" y2="615" stroke="white" stroke-width="2" />
    <line x1="2755" y1="605" x2="2745" y2="615" stroke="white" stroke-width="2" />
    <text x="2620" y="728" fill="white" font-size="1em" font-family="Helvetica">Convert text to uppercase. Trim</text>
    <text x="2620" y="746" fill="white" font-size="1em" font-family="Helvetica">whitespace.</text>
  </g>
  <g>
    <rect x="2545" y="620" width="400" height="80" fill="white" stroke="white" stroke-width="2" rx="10" />
    <text x="2555" y="665" fill="#3E5EB2" font-family="Helvetica" font-size="1.2em" text-anchor="start">county</text>
  </g>
</svg>