<svg xmlns="http://www.w3.org/2000/svg" width="1945" height="800">
  <rect width="100%" height="100%" fill="#3E5EB2" />
  <g>
    <rect x="25" y="20" width="250" height="400" fill="#3E5EB2" stroke="white" stroke-width="2" />
    <text x="35" y="225" fill="white" font-family="Helvetica" font-size="1.2em" text-anchor="start">StreetAddressLine1</text>
  </g>
  <g>
    <line x1="150" y1="420" x2="150" y2="615" stroke="white" stroke-width="2" />
    <line x1="140" y1="605" x2="150" y2="615" stroke="white" stroke-width="2" />
    <line x1="160" y1="605" x2="150" y2="615" stroke="white" stroke-width="2" />
    <text x="25" y="728" fill="white" font-size="1em" font-family="Helvetica">Convert text to uppercase. Trim</text>
    <text x="25" y="746" fill="white" font-size="1em" font-family="Helvetica">whitespace.</text>
  </g>
  <g>
    <rect x="25" y="620" width="250" height="80" fill="white" stroke="white" stroke-width="2" rx="10" />
    <text x="35" y="665" fill="#3E5EB2" font-family="Helvetica" font-size="1.2em" text-anchor="start">address_1</text>
  </g>
  <g>
    <rect x="295" y="20" width="250" height="400" fill="#3E5EB2" stroke="white" stroke-width="2" />
    <text x="305" y="225" fill="white" font-family="Helvetica" font-size="1.2em" text-anchor="start">StreetAddressLine2</text>
  </g>
  <g>
    <line x1="420" y1="420" x2="420" y2="615" stroke="white" stroke-width="2" />
    <line x1="410" y1="605" x2="420" y2="615" stroke="white" stroke-width="2" />
    <line x1="430" y1="605" x2="420" y2="615" stroke="white" stroke-width="2" />
    <text x="295" y="728" fill="white" font-size="1em" font-family="Helvetica">Convert text to uppercase. Trim</text>
    <text x="295" y="746" fill="white" font-size="1em" font-family="Helvetica">whitespace.</text>
  </g>
  <g>
    <rect x="295" y="620" width="250" height="80" fill="white" stroke="white" stroke-width="2" rx="10" />
    <text x="305" y="665" fill="#3E5EB2" font-family="Helvetica" font-size="1.2em" text-anchor="start">address_2</text>
  </g>
  <g>
    <rect x="565" y="20" width="250" height="400" fill="#3E5EB2" stroke="white" stroke-width="2" />
    <text x="575" y="225" fill="white" font-family="Helvetica" font-size="1.2em" text-anchor="start">StreetAddressLine3</text>
  </g>
  <g>
    <line x1="690" y1="420" x2="690" y2="615" stroke="white" stroke-width="2" />
    <line x1="680" y1="605" x2="690" y2="615" stroke="white" stroke-width="2" />
    <line x1="700" y1="605" x2="690" y2="615" stroke="white" stroke-width="2" />
    <text x="565" y="728" fill="white" font-size="1em" font-family="Helvetica">Convert text to uppercase. Trim</text>
    <text x="565" y="746" fill="white" font-size="1em" font-family="Helvetica">whitespace.</text>
  </g>
  <g>
    <rect x="565" y="620" width="250" height="80" fill="white" stroke="white" stroke-width="2" rx="10" />
    <text x="575" y="665" fill="#3E5EB2" font-family="Helvetica" font-size="1.2em" text-anchor="start">city</text>
  </g>
  <g>
    <rect x="835" y="20" width="250" height="400" fill="#3E5EB2" stroke="white" stroke-width="2" />
    <text x="845" y="225" fill="white" font-family="Helvetica" font-size="1.2em" text-anchor="start">StreetAddressLine4</text>
  </g>
  <g>
    <line x1="960" y1="420" x2="960" y2="615" stroke="white" stroke-width="2" />
    <line x1="950" y1="605" x2="960" y2="615" stroke="white" stroke-width="2" />
    <line x1="970" y1="605" x2="960" y2="615" stroke="white" stroke-width="2" />
    <text x="835" y="728" fill="white" font-size="1em" font-family="Helvetica">Convert text to uppercase. Trim</text>
    <text x="835" y="746" fill="white" font-size="1em" font-family="Helvetica">whitespace.</text>
  </g>
  <g>
    <rect x="835" y="620" width="250" height="80" fill="white" stroke="white" stroke-width="2" rx="10" />
    <text x="845" y="665" fill="#3E5EB2" font-family="Helvetica" font-size="1.2em" text-anchor="start">county</text>
  </g>
  <g>
    <rect x="1105" y="20" width="250" height="400" fill="#3E5EB2" stroke="white" stroke-width="2" />
    <text x="1115" y="225" fill="white" font-family="Helvetica" font-size="1.2em" text-anchor="start">Postcode</text>
  </g>
  <g>
    <line x1="1230" y1="420" x2="1230" y2="615" stroke="white" stroke-width="2" />
    <line x1="1220" y1="605" x2="1230" y2="615" stroke="white" stroke-width="2" />
    <line x1="1240" y1="605" x2="1230" y2="615" stroke="white" stroke-width="2" />
    <text x="1105" y="728" fill="white" font-size="1em" font-family="Helvetica">Uppercase the postcode then insert</text>
    <text x="1105" y="746" fill="white" font-size="1em" font-family="Helvetica">the space in the correct</text>
    <text x="1105" y="764" fill="white" font-size="1em" font-family="Helvetica">location, if needed.</text>
  </g>
  <g>
    <rect x="1105" y="620" width="250" height="80" fill="white" stroke="white" stroke-width="2" rx="10" />
    <text x="1115" y="665" fill="#3E5EB2" font-family="Helvetica" font-size="1.2em" text-anchor="start">zip</text>
  </g>
  <g>
    <rect x="1375" y="20" width="250" height="64" fill="#3E5EB2" stroke="white" stroke-width="2" />
    <text x="1385" y="57" fill="white" font-family="Helvetica" font-size="1.2em" text-anchor="start">StreetAddressLine1</text>
  </g>
  <g>
    <rect x="1375" y="104" width="250" height="64" fill="#3E5EB2" stroke="white" stroke-width="2" />
    <text x="1385" y="141" fill="white" font-family="Helvetica" font-size="1.2em" text-anchor="start">StreetAddressLine2</text>
  </g>
  <g>
    <rect x="1375" y="188" width="250" height="64" fill="#3E5EB2" stroke="white" stroke-width="2" />
    <text x="1385" y="225" fill="white" font-family="Helvetica" font-size="1.2em" text-anchor="start">StreetAddressLine3</text>
  </g>
  <g>
    <rect x="1375" y="272" width="250" height="64" fill="#3E5EB2" stroke="white" stroke-width="2" />
    <text x="1385" y="309" fill="white" font-family="Helvetica" font-size="1.2em" text-anchor="start">StreetAddressLine4</text>
  </g>
  <g>
    <rect x="1375" y="356" width="250" height="64" fill="#3E5EB2" stroke="white" stroke-width="2" />
    <text x="1385" y="393" fill="white" font-family="Helvetica" font-size="1.2em" text-anchor="start">Postcode</text>
  </g>
  <g>
    <line x1="1500" y1="420" x2="1500" y2="615" stroke="white" stroke-width="2" />
    <line x1="1490" y1="605" x2="1500" y2="615" stroke="white" stroke-width="2" />
    <line x1="1510" y1="605" x2="1500" y2="615" stroke="white" stroke-width="2" />
    <text x="1375" y="728" fill="white" font-size="1em" font-family="Helvetica">Separates text with newlines. Trim</text>
    <text x="1375" y="746" fill="white" font-size="1em" font-family="Helvetica">whitespace.</text>
  </g>
  <g>
    <rect x="1375" y="620" width="250" height="80" fill="white" stroke="white" stroke-width="2" rx="10" />
    <text x="1385" y="665" fill="#3E5EB2" font-family="Helvetica" font-size="1.2em" text-anchor="start">location_source_value</text>
  </g>
  <g>
    <rect x="1645" y="20" width="250" height="400" fill="#3E5EB2" stroke="white" stroke-width="2" />
    <text x="1655" y="225" fill="white" font-family="Helvetica" font-size="1.2em" text-anchor="start">NhsNumber</text>
  </g>
  <g>
    <line x1="1770" y1="420" x2="1770" y2="615" stroke="white" stroke-width="2" />
    <line x1="1760" y1="605" x2="1770" y2="615" stroke="white" stroke-width="2" />
    <line x1="1780" y1="605" x2="1770" y2="615" stroke="white" stroke-width="2" />
    <text x="1645" y="728" fill="white" font-size="1em" font-family="Helvetica">Copy value.</text>
  </g>
  <g>
    <rect x="1645" y="620" width="250" height="80" fill="white" stroke="white" stroke-width="2" rx="10" />
    <text x="1655" y="665" fill="#3E5EB2" font-family="Helvetica" font-size="1.2em" text-anchor="start">nhs_number</text>
  </g>
</svg>