<svg xmlns="http://www.w3.org/2000/svg" width="1750" height="800">
  <rect width="100%" height="100%" fill="#3E5EB2" />
  <g>
    <rect x="25" y="20" width="250" height="400" fill="#3E5EB2" stroke="white" stroke-width="2" />
    <text x="35" y="225" fill="white" font-family="Helvetica" font-size="1.2em" text-anchor="start">PatientId</text>
  </g>
  <g>
    <line x1="150" y1="420" x2="150" y2="615" stroke="white" stroke-width="2" />
    <line x1="140" y1="605" x2="150" y2="615" stroke="white" stroke-width="2" />
    <line x1="160" y1="605" x2="150" y2="615" stroke="white" stroke-width="2" />
    <text x="25" y="728" fill="white" font-size="1em" font-family="Helvetica">Copy value.</text>
  </g>
  <g>
    <rect x="25" y="620" width="250" height="80" fill="white" stroke="white" stroke-width="2" rx="10" />
    <text x="35" y="665" fill="#3E5EB2" font-family="Helvetica" font-size="1.2em" text-anchor="start">person_source_value</text>
  </g>
  <g>
    <rect x="295" y="20" width="250" height="400" fill="#3E5EB2" stroke="white" stroke-width="2" />
    <text x="305" y="225" fill="white" font-family="Helvetica" font-size="1.2em" text-anchor="start">DateOfBirth</text>
  </g>
  <g>
    <line x1="420" y1="420" x2="420" y2="615" stroke="white" stroke-width="2" />
    <line x1="410" y1="605" x2="420" y2="615" stroke="white" stroke-width="2" />
    <line x1="430" y1="605" x2="420" y2="615" stroke="white" stroke-width="2" />
    <text x="295" y="728" fill="white" font-size="1em" font-family="Helvetica">Selects the year from a</text>
    <text x="295" y="746" fill="white" font-size="1em" font-family="Helvetica">date or null of the</text>
    <text x="295" y="764" fill="white" font-size="1em" font-family="Helvetica">date is null.</text>
  </g>
  <g>
    <rect x="295" y="620" width="250" height="80" fill="white" stroke="white" stroke-width="2" rx="10" />
    <text x="305" y="665" fill="#3E5EB2" font-family="Helvetica" font-size="1.2em" text-anchor="start">year_of_birth</text>
  </g>
  <g>
    <rect x="565" y="20" width="250" height="400" fill="#3E5EB2" stroke="white" stroke-width="2" />
    <text x="575" y="225" fill="white" font-family="Helvetica" font-size="1.2em" text-anchor="start">DateOfBirth</text>
  </g>
  <g>
    <line x1="690" y1="420" x2="690" y2="615" stroke="white" stroke-width="2" />
    <line x1="680" y1="605" x2="690" y2="615" stroke="white" stroke-width="2" />
    <line x1="700" y1="605" x2="690" y2="615" stroke="white" stroke-width="2" />
    <text x="565" y="728" fill="white" font-size="1em" font-family="Helvetica">Selects the month of the</text>
    <text x="565" y="746" fill="white" font-size="1em" font-family="Helvetica">year or null if the</text>
    <text x="565" y="764" fill="white" font-size="1em" font-family="Helvetica">date is null.</text>
  </g>
  <g>
    <rect x="565" y="620" width="250" height="80" fill="white" stroke="white" stroke-width="2" rx="10" />
    <text x="575" y="665" fill="#3E5EB2" font-family="Helvetica" font-size="1.2em" text-anchor="start">month_of_birth</text>
  </g>
  <g>
    <rect x="835" y="20" width="250" height="400" fill="#3E5EB2" stroke="white" stroke-width="2" />
    <text x="845" y="225" fill="white" font-family="Helvetica" font-size="1.2em" text-anchor="start">DateOfBirth</text>
  </g>
  <g>
    <line x1="960" y1="420" x2="960" y2="615" stroke="white" stroke-width="2" />
    <line x1="950" y1="605" x2="960" y2="615" stroke="white" stroke-width="2" />
    <line x1="970" y1="605" x2="960" y2="615" stroke="white" stroke-width="2" />
    <text x="835" y="728" fill="white" font-size="1em" font-family="Helvetica">Selects the day of the</text>
    <text x="835" y="746" fill="white" font-size="1em" font-family="Helvetica">month or null if the</text>
    <text x="835" y="764" fill="white" font-size="1em" font-family="Helvetica">date is null.</text>
  </g>
  <g>
    <rect x="835" y="620" width="250" height="80" fill="white" stroke="white" stroke-width="2" rx="10" />
    <text x="845" y="665" fill="#3E5EB2" font-family="Helvetica" font-size="1.2em" text-anchor="start">day_of_birth</text>
  </g>
  <g>
    <rect x="1105" y="20" width="250" height="400" fill="#3E5EB2" stroke="white" stroke-width="2" />
    <text x="1115" y="225" fill="white" font-family="Helvetica" font-size="1.2em" text-anchor="start">DateOfBirth</text>
  </g>
  <g>
    <line x1="1230" y1="420" x2="1230" y2="615" stroke="white" stroke-width="2" />
    <line x1="1220" y1="605" x2="1230" y2="615" stroke="white" stroke-width="2" />
    <line x1="1240" y1="605" x2="1230" y2="615" stroke="white" stroke-width="2" />
    <text x="1105" y="728" fill="white" font-size="1em" font-family="Helvetica">Converts text to dates.</text>
  </g>
  <g>
    <rect x="1105" y="620" width="250" height="80" fill="white" stroke="white" stroke-width="2" rx="10" />
    <text x="1115" y="665" fill="#3E5EB2" font-family="Helvetica" font-size="1.2em" text-anchor="start">birth_datetime</text>
  </g>
  <g>
    <rect x="1375" y="20" width="250" height="400" fill="#3E5EB2" stroke="white" stroke-width="2" />
    <text x="1385" y="225" fill="white" font-family="Helvetica" font-size="1.2em" text-anchor="start">Sex</text>
  </g>
  <g>
    <line x1="1500" y1="420" x2="1500" y2="615" stroke="white" stroke-width="2" />
    <line x1="1490" y1="605" x2="1500" y2="615" stroke="white" stroke-width="2" />
    <line x1="1510" y1="605" x2="1500" y2="615" stroke="white" stroke-width="2" />
    <text x="1375" y="728" fill="white" font-size="1em" font-family="Helvetica">Lookup gender concept.</text>
  </g>
  <g>
    <rect x="1375" y="620" width="250" height="80" fill="white" stroke="white" stroke-width="2" rx="10" />
    <text x="1385" y="665" fill="#3E5EB2" font-family="Helvetica" font-size="1.2em" text-anchor="start">gender_concept_id</text>
  </g>
</svg>